<?xml version="1.0" encoding="UTF-8"?><svg id="a" xmlns="http://www.w3.org/2000/svg" viewBox="0 0 1026.7 349.395"><polyline points="378.346 226.42 378.346 205.678 477.166 205.678 477.166 197.679" fill="none" stroke="#1fbf51" stroke-dasharray="0 0 3 3" stroke-linecap="round" stroke-linejoin="round"/><polyline points="337.651 166.545 337.651 147.539 378.346 147.539 378.346 140.209" fill="none" stroke="#000" stroke-dasharray="0 0 3 3" stroke-linecap="round" stroke-linejoin="round"/><line x1="407.567" y1="184.107" x2="359.194" y2="184.107" fill="none" stroke="#1db14b" stroke-dasharray="0 0 3 3" stroke-linecap="round" stroke-linejoin="round"/><rect x="282.327" y="19.261" width="247.063" height="298.235" fill="none" stroke="#000" stroke-linecap="round" stroke-miterlimit="10"/><line x1="322.268" y1="140.21" x2="322.268" y2="166.545" fill="none" stroke="#343434" stroke-dasharray="0 0 3 3" stroke-linecap="round" stroke-linejoin="round"/><line x1="433.418" y1="140.21" x2="433.418" y2="166.545" fill="none" stroke="#343434" stroke-dasharray="0 0 3 3" stroke-linecap="round" stroke-linejoin="round"/><line x1="489.693" y1="140.21" x2="489.693" y2="166.545" fill="none" stroke="#1db14b" stroke-dasharray="0 0 3 3" stroke-linecap="round" stroke-linejoin="round"/><line x1="322.268" y1="198.51" x2="322.268" y2="225.394" fill="none" stroke="#343434" stroke-dasharray="0 0 3.031 3.031" stroke-linecap="round" stroke-linejoin="round"/><line x1="433.418" y1="198.51" x2="433.418" y2="225.394" fill="none" stroke="#343434" stroke-dasharray="0 0 3.031 3.031" stroke-linecap="round" stroke-linejoin="round"/><line x1="489.693" y1="198.51" x2="489.693" y2="225.394" fill="none" stroke="#1db14b" stroke-dasharray="0 0 3.031 3.031" stroke-linecap="round" stroke-linejoin="round"/><line x1="417.948" y1="241.799" x2="393.795" y2="241.799" fill="none" stroke="#343434" stroke-dasharray="0 0 3.031 3.031" stroke-linecap="round" stroke-linejoin="round"/><line x1="362.495" y1="241.799" x2="338.342" y2="241.799" fill="none" stroke="#343434" stroke-dasharray="0 0 3.031 3.031" stroke-linecap="round" stroke-linejoin="round"/><g><rect x="345.164" y="10.261" width="121.389" height="18"/><path d="M360.806,18.183v4.578h-1.549v-1.489h-2.658v-1.399l1.189-4.208h1.629l-1.189,4.208h1.029v-1.689h1.549Z" fill="#fff"/><path d="M364.853,18.223v-.709c0-.36-.329-.6-.789-.6s-.799,.24-.799,.6v3.398c0,.36,.34,.6,.789,.6,.47,0,.799-.24,.799-.6v-.6h-.809v-1.399h2.358v1.979c0,1.189-.919,2.019-2.339,2.019s-2.349-.83-2.349-2.019v-3.358c0-1.189,.919-2.019,2.339-2.019s2.349,.83,2.349,2.019v.689h-1.55Z" fill="#fff"/><path d="M369.886,15.315l-1.409,7.945h-1.459l1.409-7.945h1.459Z" fill="#fff"/><path d="M374.805,20.172v.79c0,1.149-.899,1.949-2.118,1.949-1.23,0-2.119-.799-2.119-1.949v-.64h1.549v.75c0,.3,.199,.479,.57,.479,.369,0,.568-.18,.568-.479v-1.01c0-.28-.129-.45-.34-.45h-2.158v-3.948h3.777v1.399h-2.229v1.189h.63c1.089,0,1.869,.79,1.869,1.919Z" fill="#fff"/><path d="M378.831,18.223v-.709c0-.36-.329-.6-.789-.6s-.799,.24-.799,.6v3.398c0,.36,.34,.6,.789,.6,.47,0,.799-.24,.799-.6v-.6h-.809v-1.399h2.358v1.979c0,1.189-.919,2.019-2.339,2.019s-2.349-.83-2.349-2.019v-3.358c0-1.189,.919-2.019,2.339-2.019s2.349,.83,2.349,2.019v.689h-1.55Z" fill="#fff"/><path d="M388.06,15.665v7.096h-1.549v-2.749h-1.609v2.749h-1.549v-7.096h1.549v2.948h1.609v-2.948h1.549Z" fill="#fff"/><path d="M392.219,20.412v2.349h-1.55v-2.349l-1.818-4.748h1.648l.96,2.829,.95-2.829h1.629l-1.819,4.748Z" fill="#fff"/><path d="M399.306,20.382v.41c0,1.139-.85,1.969-2.029,1.969h-2.448v-7.096h2.309c1.18,0,2.039,.75,2.039,1.769v.51c0,.41-.19,.82-.53,1.12,.42,.32,.66,.819,.66,1.319Zm-2.928-3.368v1.479h.839c.229,0,.409-.22,.409-.53v-.5c0-.25-.18-.45-.398-.45h-.85Zm1.379,3.348c0-.3-.16-.529-.41-.529h-.969v1.579h.959c.26,0,.42-.25,.42-.55v-.5Z" fill="#fff"/><path d="M402.442,20.202h-.739v2.559h-1.55v-7.096h2.358c1.24,0,2.119,.79,2.119,1.939v.66c0,.63-.27,1.159-.709,1.499l.919,2.999h-1.619l-.779-2.559Zm-.739-1.399h.909c.29,0,.47-.18,.47-.47v-.799c0-.29-.18-.47-.46-.47h-.919v1.739Z" fill="#fff"/><path d="M405.677,15.665h1.549v7.096h-1.549v-7.096Z" fill="#fff"/><path d="M412.77,17.684v3.058c0,1.189-.919,2.019-2.269,2.019h-2.299v-7.096h2.289c1.35,0,2.278,.83,2.278,2.019Zm-1.549-.02c0-.36-.229-.6-.62-.6h-.85v4.297h.84c.4,0,.63-.24,.63-.6v-3.098Z" fill="#fff"/><path d="M420.3,15.665v7.096h-1.359l-1.85-4.038v4.038h-1.35v-7.096h1.35l1.85,4.058v-4.058h1.359Z" fill="#fff"/><path d="M422.837,17.064v1.549h1.719v1.399h-1.719v1.349h2.118v1.399h-3.668v-7.096h3.668v1.399h-2.118Z" fill="#fff"/><path d="M430.103,17.064h-1.469v5.697h-1.549v-5.697h-1.479v-1.399h4.497v1.399Z" fill="#fff"/><path d="M438.558,15.665l-1.52,7.096h-1.608l-.79-3.858-.789,3.858h-1.609l-1.52-7.096h1.609l.79,4.837,.919-4.837h1.189l.97,4.828,.77-4.828h1.589Z" fill="#fff"/><path d="M439.189,20.892v-3.358c0-1.189,.919-2.019,2.358-2.019,1.429,0,2.358,.83,2.358,2.019v3.358c0,1.189-.92,2.019-2.349,2.019-1.438,0-2.368-.83-2.368-2.019Zm3.168,.02v-3.398c0-.36-.24-.6-.8-.6-.579,0-.819,.24-.819,.6v3.398c0,.36,.24,.6,.81,.6s.81-.24,.81-.6Z" fill="#fff"/><path d="M447.128,20.202h-.74v2.559h-1.549v-7.096h2.359c1.238,0,2.118,.79,2.118,1.939v.66c0,.63-.27,1.159-.71,1.499l.92,2.999h-1.619l-.779-2.559Zm-.74-1.399h.91c.289,0,.47-.18,.47-.47v-.799c0-.29-.181-.47-.46-.47h-.92v1.739Z" fill="#fff"/><path d="M453.517,22.761l-1.6-3.348v3.348h-1.549v-7.096h1.549v3.158l1.479-3.158h1.74l-1.58,3.438,1.709,3.658h-1.748Z" fill="#fff"/></g><rect x="290.32" y="85.739" width="231.076" height="220" fill="none" stroke="#999" stroke-linecap="round" stroke-miterlimit="10"/><g><rect x="350.168" y="77.113" width="111.381" height="18" fill="#999"/><path d="M356.066,87.744v-3.358c0-1.189,.92-2.019,2.339-2.019s2.349,.83,2.349,2.019v.89h-1.569v-.91c0-.36-.26-.6-.77-.6-.53,0-.8,.24-.8,.6v3.398c0,.36,.27,.6,.79,.6s.779-.24,.779-.6v-.909h1.569v.889c0,1.189-.92,2.019-2.339,2.019s-2.349-.83-2.349-2.019Z" fill="#fff"/><path d="M365.339,88.214v1.399h-3.688v-7.096h1.549v5.697h2.139Z" fill="#fff"/><path d="M366.068,87.744v-3.358c0-1.189,.92-2.019,2.359-2.019,1.429,0,2.357,.83,2.357,2.019v3.358c0,1.189-.919,2.019-2.348,2.019-1.439,0-2.369-.83-2.369-2.019Zm3.168,.02v-3.398c0-.36-.24-.6-.799-.6-.58,0-.82,.24-.82,.6v3.398c0,.36,.24,.6,.811,.6s.809-.24,.809-.6Z" fill="#fff"/><path d="M371.667,87.744v-5.227h1.549v5.247c0,.36,.229,.6,.719,.6,.5,0,.73-.24,.73-.6v-5.247h1.549v5.227c0,1.189-.89,2.019-2.269,2.019s-2.278-.83-2.278-2.019Z" fill="#fff"/><path d="M381.733,84.536v3.058c0,1.189-.919,2.019-2.269,2.019h-2.299v-7.096h2.289c1.35,0,2.278,.83,2.278,2.019Zm-1.549-.02c0-.36-.229-.6-.62-.6h-.85v4.297h.84c.4,0,.63-.24,.63-.6v-3.098Z" fill="#fff"/><path d="M382.631,86.215h2.358v1.299h-2.358v-1.299Z" fill="#fff"/><path d="M390.471,82.517v7.096h-1.359l-1.849-4.038v4.038h-1.35v-7.096h1.35l1.849,4.058v-4.058h1.359Z" fill="#fff"/><path d="M394.515,88.364h-1.449l-.289,1.25h-1.51l1.529-7.096h2.009l1.539,7.096h-1.539l-.29-1.25Zm-.719-3.958l-.45,2.559h.899l-.449-2.559Z" fill="#fff"/><path d="M400.871,83.917h-1.47v5.697h-1.549v-5.697h-1.479v-1.399h4.497v1.399Z" fill="#fff"/><path d="M401.63,82.517h1.55v7.096h-1.55v-7.096Z" fill="#fff"/><path d="M408.966,82.517l-1.499,7.096h-2.019l-1.49-7.096h1.55l.96,4.867,.969-4.867h1.529Z" fill="#fff"/><path d="M411.306,83.917v1.549h1.719v1.399h-1.719v1.349h2.118v1.399h-3.668v-7.096h3.668v1.399h-2.118Z" fill="#fff"/><path d="M420.833,82.517v7.096h-1.359l-1.849-4.038v4.038h-1.349v-7.096h1.349l1.849,4.058v-4.058h1.359Z" fill="#fff"/><path d="M423.37,83.917v1.549h1.719v1.399h-1.719v1.349h2.119v1.399h-3.668v-7.096h3.668v1.399h-2.119Z" fill="#fff"/><path d="M430.637,83.917h-1.47v5.697h-1.549v-5.697h-1.479v-1.399h4.497v1.399Z" fill="#fff"/><path d="M439.092,82.517l-1.52,7.096h-1.608l-.79-3.858-.79,3.858h-1.609l-1.519-7.096h1.609l.79,4.837,.919-4.837h1.188l.971,4.828,.77-4.828h1.589Z" fill="#fff"/><path d="M439.722,87.744v-3.358c0-1.189,.92-2.019,2.359-2.019,1.429,0,2.357,.83,2.357,2.019v3.358c0,1.189-.919,2.019-2.348,2.019-1.439,0-2.369-.83-2.369-2.019Zm3.168,.02v-3.398c0-.36-.24-.6-.799-.6-.58,0-.82,.24-.82,.6v3.398c0,.36,.24,.6,.811,.6s.809-.24,.809-.6Z" fill="#fff"/><path d="M447.661,87.055h-.739v2.559h-1.55v-7.096h2.359c1.239,0,2.119,.79,2.119,1.939v.66c0,.63-.27,1.159-.71,1.499l.919,2.999h-1.619l-.779-2.559Zm-.739-1.399h.909c.29,0,.471-.18,.471-.47v-.799c0-.29-.181-.47-.461-.47h-.919v1.739Z" fill="#fff"/><path d="M454.05,89.613l-1.6-3.348v3.348h-1.549v-7.096h1.549v3.158l1.479-3.158h1.739l-1.579,3.438,1.709,3.658h-1.749Z" fill="#fff"/></g><g><rect x="317.884" y="156.368" width="30.765" height="51.857" rx=".493" ry=".493" transform="translate(150.969 515.563) rotate(-90)" fill="none" stroke="#000" stroke-linecap="round" stroke-linejoin="round"/><g><path d="M323.421,185.924v-7.338h2.509c2.277,0,3.763,1.595,3.763,3.675s-1.485,3.663-3.763,3.663h-2.509Zm.914-.814h1.595c1.782,0,2.816-1.275,2.816-2.849,0-1.585-1.001-2.861-2.816-2.861h-1.595v5.71Z"/><path d="M335.259,185.924l-1.871-2.915h-1.463v2.915h-.914v-7.338h2.949c1.342,0,2.299,.858,2.299,2.211,0,1.32-.902,2.047-1.902,2.135l1.98,2.992h-1.078Zm-1.408-6.524h-1.926v2.806h1.926c.868,0,1.463-.583,1.463-1.408s-.595-1.397-1.463-1.397Z"/><path d="M342.859,185.924l-.648-1.628h-3.719l-.648,1.628h-1.013l2.948-7.338h1.133l2.96,7.338h-1.013Zm-2.508-6.524l-1.596,4.082h3.18l-1.584-4.082Z"/></g></g><g><rect x="418.331" y="156.368" width="30.765" height="51.857" rx=".493" ry=".493" transform="translate(251.417 616.01) rotate(-90)" fill="none" stroke="#000" stroke-linecap="round" stroke-linejoin="round"/><g><path d="M425.485,185.924v-7.338h.914v7.338h-.914Z" fill="#1fbf51"/><path d="M433.615,185.924l-1.617-5.919-1.617,5.919h-.99l-2.09-7.338h1.012l1.629,6.117,1.683-6.117h.76l1.683,6.117,1.617-6.117h1.013l-2.091,7.338h-.99Z" fill="#1fbf51"/><path d="M437.607,185.924v-7.338h4.808v.813h-3.895v2.366h3.817v.813h-3.817v3.345h-.913Z" fill="#1fbf51"/></g></g><g><rect x="470.408" y="156.368" width="30.765" height="51.857" rx=".493" ry=".493" transform="translate(303.494 668.087) rotate(-90)" fill="none" stroke="#000" stroke-linecap="round" stroke-linejoin="round"/><g><path d="M476.688,184.197c.484,.539,1.276,1.046,2.311,1.046,1.31,0,1.728-.704,1.728-1.266,0-.88-.892-1.122-1.859-1.386-1.177-.309-2.486-.639-2.486-2.08,0-1.21,1.078-2.035,2.52-2.035,1.122,0,1.991,.374,2.607,1.023l-.551,.671c-.55-.605-1.319-.88-2.123-.88-.88,0-1.507,.473-1.507,1.166,0,.737,.847,.957,1.782,1.21,1.199,.319,2.563,.693,2.563,2.233,0,1.067-.727,2.156-2.707,2.156-1.275,0-2.211-.484-2.816-1.166l.539-.693Z" fill="#1fbf51"/><path d="M482.628,182.261c0-2.256,1.661-3.796,3.74-3.796,1.331,0,2.233,.627,2.816,1.452l-.77,.429c-.419-.616-1.178-1.066-2.047-1.066-1.573,0-2.794,1.231-2.794,2.981,0,1.738,1.221,2.981,2.794,2.981,.869,0,1.628-.44,2.047-1.067l.78,.429c-.615,.836-1.496,1.452-2.827,1.452-2.079,0-3.74-1.54-3.74-3.795Z" fill="#1fbf51"/><path d="M490.25,185.924v-7.338h2.949c1.474,0,2.299,1.012,2.299,2.211s-.847,2.212-2.299,2.212h-2.035v2.915h-.914Zm2.839-6.524h-1.925v2.795h1.925c.869,0,1.463-.572,1.463-1.397s-.594-1.397-1.463-1.397Z" fill="#1fbf51"/></g></g><g><rect x="474.311" y="108.662" width="30.765" height="30.765" rx=".962" ry=".962" transform="translate(365.649 613.737) rotate(-90)" fill="none" stroke="#000" stroke-linecap="round" stroke-linejoin="round"/><g><path d="M478.511,120.125h.914v4.467c0,1.342,.726,2.189,2.079,2.189s2.079-.848,2.079-2.189v-4.467h.913v4.478c0,1.826-1.001,2.992-2.992,2.992s-2.993-1.177-2.993-2.981v-4.488Z"/><path d="M486.102,127.463v-7.338h2.509c2.277,0,3.762,1.595,3.762,3.675s-1.484,3.663-3.762,3.663h-2.509Zm.913-.814h1.596c1.782,0,2.816-1.275,2.816-2.849,0-1.585-1.002-2.861-2.816-2.861h-1.596v5.71Z"/><path d="M499.962,127.463v-6.105l-2.497,6.105h-.374l-2.486-6.105v6.105h-.913v-7.338h1.31l2.277,5.589,2.288-5.589h1.309v7.338h-.913Z"/></g></g><g><rect x="418.036" y="108.662" width="30.765" height="30.765" rx=".962" ry=".962" transform="translate(557.463 -309.374) rotate(90)" fill="none" stroke="#000" stroke-linecap="round" stroke-linejoin="round"/><g><path d="M426.583,120.004c2.167,0,3.641,1.628,3.641,3.796s-1.474,3.795-3.641,3.795c-2.179,0-3.643-1.628-3.643-3.795s1.464-3.796,3.643-3.796Zm0,.814c-1.65,0-2.695,1.265-2.695,2.981,0,1.705,1.045,2.981,2.695,2.981,1.639,0,2.695-1.276,2.695-2.981,0-1.717-1.057-2.981-2.695-2.981Z"/><path d="M431.246,123.8c0-2.256,1.661-3.796,3.741-3.796,1.33,0,2.232,.627,2.816,1.452l-.771,.429c-.419-.616-1.177-1.066-2.046-1.066-1.574,0-2.795,1.231-2.795,2.981,0,1.738,1.221,2.981,2.795,2.981,.869,0,1.627-.44,2.046-1.067l.78,.429c-.615,.836-1.496,1.452-2.826,1.452-2.08,0-3.741-1.54-3.741-3.795Z"/><path d="M438.968,125.735c.484,.539,1.276,1.046,2.311,1.046,1.309,0,1.727-.704,1.727-1.266,0-.88-.891-1.122-1.859-1.386-1.176-.309-2.486-.639-2.486-2.08,0-1.21,1.078-2.035,2.52-2.035,1.123,0,1.992,.374,2.607,1.023l-.55,.671c-.55-.605-1.319-.88-2.123-.88-.88,0-1.507,.473-1.507,1.166,0,.737,.847,.957,1.781,1.21,1.199,.319,2.564,.693,2.564,2.233,0,1.067-.727,2.156-2.707,2.156-1.275,0-2.211-.484-2.816-1.166l.539-.693Z"/></g></g><g><rect x="362.622" y="108.662" width="30.765" height="30.765" rx=".962" ry=".962" transform="translate(253.96 502.048) rotate(-90)" fill="none" stroke="#000" stroke-linecap="round" stroke-linejoin="round"/><g><path d="M373.814,127.463v-3.366h-4.29v3.366h-.913v-7.338h.913v3.157h4.29v-3.157h.914v7.338h-.914Z"/><path d="M376.431,125.735c.484,.539,1.277,1.046,2.311,1.046,1.31,0,1.728-.704,1.728-1.266,0-.88-.892-1.122-1.859-1.386-1.177-.309-2.486-.639-2.486-2.08,0-1.21,1.078-2.035,2.52-2.035,1.122,0,1.991,.374,2.607,1.023l-.55,.671c-.551-.605-1.32-.88-2.123-.88-.881,0-1.508,.473-1.508,1.166,0,.737,.848,.957,1.782,1.21,1.199,.319,2.563,.693,2.563,2.233,0,1.067-.727,2.156-2.707,2.156-1.275,0-2.211-.484-2.816-1.166l.539-.693Z"/><path d="M382.767,125.735c.484,.539,1.276,1.046,2.311,1.046,1.309,0,1.727-.704,1.727-1.266,0-.88-.891-1.122-1.859-1.386-1.176-.309-2.486-.639-2.486-2.08,0-1.21,1.078-2.035,2.52-2.035,1.123,0,1.992,.374,2.607,1.023l-.55,.671c-.55-.605-1.319-.88-2.123-.88-.88,0-1.507,.473-1.507,1.166,0,.737,.847,.957,1.781,1.21,1.199,.319,2.564,.693,2.564,2.233,0,1.067-.727,2.156-2.707,2.156-1.275,0-2.211-.484-2.816-1.166l.539-.693Z"/></g></g><g><rect x="306.886" y="108.662" width="30.765" height="30.765" rx=".962" ry=".962" transform="translate(198.224 446.312) rotate(-90)" fill="none" stroke="#000" stroke-linecap="round" stroke-linejoin="round"/><g><path d="M317.479,127.463v-6.105l-2.497,6.105h-.374l-2.486-6.105v6.105h-.913v-7.338h1.309l2.277,5.589,2.289-5.589h1.309v7.338h-.913Z"/><path d="M326.268,127.463v-6.105l-2.497,6.105h-.374l-2.486-6.105v6.105h-.913v-7.338h1.309l2.277,5.589,2.289-5.589h1.309v7.338h-.913Z"/><path d="M328.785,127.463v-7.338h4.808v.813h-3.895v2.366h3.818v.813h-3.818v2.53h3.895v.814h-4.808Z"/></g></g><g><rect x="474.311" y="226.416" width="30.765" height="30.765" rx=".962" ry=".962" transform="translate(247.894 731.492) rotate(-90)" fill="none" stroke="#000" stroke-linecap="round" stroke-linejoin="round"/><g><path d="M484.837,245.217l-.648-1.628h-3.719l-.648,1.628h-1.013l2.948-7.338h1.133l2.96,7.338h-1.013Zm-2.508-6.524l-1.596,4.082h3.18l-1.584-4.082Z"/><path d="M492.966,245.217v-6.105l-2.496,6.105h-.375l-2.486-6.105v6.105h-.913v-7.338h1.31l2.277,5.589,2.288-5.589h1.31v7.338h-.914Z"/><path d="M495.484,245.217v-7.338h4.809v.813h-3.895v2.366h3.817v.813h-3.817v3.345h-.914Z"/></g></g><g><rect x="418.036" y="226.416" width="30.765" height="30.765" rx=".962" ry=".962" transform="translate(191.62 675.217) rotate(-90)" fill="none" stroke="#000" stroke-linecap="round" stroke-linejoin="round"/><g><path d="M421.126,245.217v-7.338h2.948c1.475,0,2.3,1.012,2.3,2.211s-.848,2.212-2.3,2.212h-2.035v2.915h-.913Zm2.838-6.524h-1.925v2.795h1.925c.869,0,1.464-.572,1.464-1.397s-.595-1.397-1.464-1.397Z"/><path d="M427.176,241.554c0-2.256,1.661-3.796,3.741-3.796,1.331,0,2.233,.627,2.816,1.452l-.771,.429c-.418-.616-1.177-1.066-2.046-1.066-1.573,0-2.795,1.231-2.795,2.981,0,1.738,1.222,2.981,2.795,2.981,.869,0,1.628-.44,2.046-1.067l.781,.429c-.616,.836-1.496,1.452-2.827,1.452-2.08,0-3.741-1.54-3.741-3.795Z"/><path d="M439.045,245.217l-1.87-2.915h-1.463v2.915h-.913v-7.338h2.948c1.343,0,2.3,.858,2.3,2.211,0,1.32-.902,2.047-1.903,2.135l1.98,2.992h-1.079Zm-1.408-6.524h-1.925v2.806h1.925c.869,0,1.464-.583,1.464-1.408s-.595-1.397-1.464-1.397Z"/><path d="M441.377,245.217v-7.338h4.808v.813h-3.895v2.366h3.817v.813h-3.817v3.345h-.913Z"/></g></g><g><rect x="362.622" y="226.416" width="30.765" height="30.765" rx=".962" ry=".962" transform="translate(136.205 619.803) rotate(-90)" fill="none" stroke="#000" stroke-linecap="round" stroke-linejoin="round"/><g><path d="M373.902,245.217l-4.279-5.919v5.919h-.913v-7.338h.936l4.225,5.798v-5.798h.913v7.338h-.881Z"/><path d="M380.634,245.217l-1.87-2.915h-1.463v2.915h-.913v-7.338h2.948c1.343,0,2.3,.858,2.3,2.211,0,1.32-.902,2.047-1.904,2.135l1.98,2.992h-1.078Zm-1.408-6.524h-1.925v2.806h1.925c.869,0,1.463-.583,1.463-1.408s-.594-1.397-1.463-1.397Z"/><path d="M382.965,245.217v-7.338h4.808v.813h-3.895v2.366h3.818v.813h-3.818v3.345h-.913Z"/></g></g><g><rect x="306.886" y="226.416" width="30.765" height="30.765" rx=".962" ry=".962" transform="translate(80.47 564.067) rotate(-90)" fill="none" stroke="#000" stroke-linecap="round" stroke-linejoin="round"/><g><path d="M309.756,243.49c.484,.539,1.276,1.046,2.311,1.046,1.31,0,1.728-.704,1.728-1.266,0-.88-.892-1.122-1.859-1.386-1.178-.309-2.486-.639-2.486-2.08,0-1.21,1.078-2.035,2.52-2.035,1.121,0,1.99,.374,2.607,1.023l-.551,.671c-.55-.605-1.32-.88-2.123-.88-.881,0-1.508,.473-1.508,1.166,0,.737,.848,.957,1.783,1.21,1.199,.319,2.562,.693,2.562,2.233,0,1.067-.726,2.156-2.706,2.156-1.276,0-2.212-.484-2.816-1.166l.539-.693Z"/><path d="M315.465,242.918v-.726h2.64v.726h-2.64Z"/><path d="M322.659,237.758c1.298,0,2.2,.572,2.85,1.375l-.727,.451c-.462-.594-1.243-1.012-2.123-1.012-1.606,0-2.828,1.231-2.828,2.981,0,1.738,1.222,2.992,2.828,2.992,.88,0,1.605-.43,1.969-.792v-1.496h-2.52v-.814h3.434v2.651c-.683,.759-1.684,1.265-2.883,1.265-2.091,0-3.773-1.528-3.773-3.806s1.683-3.796,3.773-3.796Z"/><path d="M332.493,245.217l-1.617-5.919-1.617,5.919h-.99l-2.09-7.338h1.012l1.629,6.117,1.683-6.117h.759l1.684,6.117,1.617-6.117h1.012l-2.09,7.338h-.99Z"/></g></g><g><path d="M348.807,330.832v-5.333h2.103c1.672,0,2.831,1.063,2.831,2.671s-1.159,2.662-2.831,2.662h-2.103Zm1.136-.999h.967c1.056,0,1.672-.76,1.672-1.663,0-.943-.576-1.671-1.672-1.671h-.967v3.334Z"/><path d="M354.633,325.794c0-.336,.279-.607,.607-.607,.336,0,.607,.271,.607,.607s-.271,.607-.607,.607c-.328,0-.607-.271-.607-.607Zm.104,5.037v-3.861h1.016v3.861h-1.016Z"/><path d="M359.232,330.832v-.399c-.264,.312-.72,.496-1.224,.496-.615,0-1.343-.416-1.343-1.279,0-.904,.728-1.231,1.343-1.231,.512,0,.968,.159,1.224,.472v-.536c0-.392-.336-.647-.848-.647-.416,0-.8,.152-1.127,.456l-.384-.68c.472-.416,1.079-.608,1.687-.608,.88,0,1.688,.353,1.688,1.464v2.494h-1.016Zm0-1.407c-.168-.224-.487-.336-.815-.336-.4,0-.728,.216-.728,.584,0,.36,.327,.567,.728,.567,.328,0,.647-.111,.815-.335v-.48Z"/><path d="M366.203,330.832v-2.438c0-.359-.159-.615-.575-.615-.36,0-.655,.239-.8,.447v2.606h-1.023v-2.438c0-.359-.16-.615-.575-.615-.353,0-.648,.239-.8,.455v2.599h-1.016v-3.861h1.016v.504c.16-.232,.672-.601,1.264-.601,.567,0,.927,.265,1.071,.704,.224-.352,.735-.704,1.327-.704,.711,0,1.135,.376,1.135,1.168v2.79h-1.023Z"/><path d="M370.164,326.874c1.151,0,1.935,.864,1.935,2.127v.225h-2.87c.063,.487,.455,.896,1.111,.896,.359,0,.783-.145,1.031-.384l.447,.655c-.392,.359-.991,.536-1.591,.536-1.175,0-2.062-.792-2.062-2.031,0-1.119,.823-2.023,1.999-2.023Zm-.952,1.663h1.903c-.024-.367-.28-.855-.951-.855-.632,0-.904,.472-.952,.855Z"/><path d="M373.239,329.873v-2.015h-.64v-.888h.64v-1.056h1.023v1.056h.783v.888h-.783v1.742c0,.24,.128,.424,.352,.424,.152,0,.296-.056,.352-.111l.216,.768c-.151,.136-.424,.248-.848,.248-.711,0-1.095-.368-1.095-1.056Z"/><path d="M377.664,326.874c1.151,0,1.935,.864,1.935,2.127v.225h-2.87c.063,.487,.455,.896,1.111,.896,.359,0,.783-.145,1.031-.384l.447,.655c-.392,.359-.991,.536-1.591,.536-1.175,0-2.062-.792-2.062-2.031,0-1.119,.823-2.023,1.999-2.023Zm-.952,1.663h1.903c-.024-.367-.28-.855-.951-.855-.632,0-.904,.472-.952,.855Z"/><path d="M380.519,330.832v-3.861h1.016v.527c.271-.344,.752-.615,1.231-.615v.991c-.072-.016-.168-.024-.28-.024-.336,0-.783,.185-.951,.432v2.551h-1.016Z"/><path d="M387.925,330.832v-.399c-.264,.312-.719,.496-1.223,.496-.616,0-1.344-.416-1.344-1.279,0-.904,.728-1.231,1.344-1.231,.512,0,.967,.159,1.223,.472v-.536c0-.392-.335-.647-.847-.647-.416,0-.8,.152-1.128,.456l-.384-.68c.472-.416,1.079-.608,1.688-.608,.879,0,1.687,.353,1.687,1.464v2.494h-1.016Zm0-1.407c-.167-.224-.487-.336-.815-.336-.399,0-.728,.216-.728,.584,0,.36,.328,.567,.728,.567,.328,0,.648-.111,.815-.335v-.48Z"/><path d="M392.715,330.832v-2.334c0-.536-.279-.72-.711-.72-.4,0-.712,.224-.88,.455v2.599h-1.016v-3.861h1.016v.504c.248-.296,.72-.601,1.352-.601,.847,0,1.255,.48,1.255,1.231v2.727h-1.016Z"/><path d="M397.578,330.832v-.487c-.304,.376-.728,.584-1.191,.584-.976,0-1.711-.736-1.711-2.023,0-1.264,.728-2.031,1.711-2.031,.456,0,.888,.2,1.191,.592v-1.967h1.023v5.333h-1.023Zm0-2.614c-.176-.256-.536-.439-.88-.439-.575,0-.976,.455-.976,1.127,0,.664,.4,1.119,.976,1.119,.344,0,.704-.184,.88-.439v-1.367Z"/><path d="M405.497,330.832v-2.238h-2.519v2.238h-1.135v-5.333h1.135v2.095h2.519v-2.095h1.144v5.333h-1.144Z"/><path d="M409.04,330.832v-4.333h-1.56v-1h4.254v1h-1.552v4.333h-1.143Z"/><path d="M413.958,330.832v-4.333h-1.56v-1h4.254v1h-1.552v4.333h-1.143Z"/><path d="M417.493,330.832v-5.333h2.494c1.159,0,1.791,.784,1.791,1.72,0,.927-.64,1.702-1.791,1.702h-1.359v1.911h-1.135Zm2.343-4.357h-1.208v1.472h1.208c.447,0,.783-.288,.783-.736,0-.439-.336-.735-.783-.735Z"/><path d="M421.83,330.992l1.895-5.653h.735l-1.895,5.653h-.735Z"/><path d="M425.037,330.832v-.896c2.183-1.606,2.822-2.158,2.822-2.814,0-.464-.424-.695-.872-.695-.6,0-1.063,.24-1.423,.615l-.647-.751c.52-.6,1.312-.872,2.055-.872,1.136,0,2.039,.64,2.039,1.703,0,.912-.752,1.703-2.183,2.711h2.223v.999h-4.014Z"/><path d="M432.452,329.216c.375,.393,.959,.72,1.694,.72,.624,0,.928-.296,.928-.6,0-.399-.464-.535-1.079-.68-.872-.199-1.991-.439-1.991-1.631,0-.888,.768-1.607,2.023-1.607,.847,0,1.551,.256,2.078,.744l-.631,.831c-.433-.399-1.008-.583-1.527-.583-.512,0-.784,.224-.784,.543,0,.36,.448,.472,1.063,.616,.88,.199,1.999,.464,1.999,1.646,0,.976-.695,1.712-2.135,1.712-1.023,0-1.759-.345-2.263-.848l.624-.864Z"/><path d="M437.064,325.794c0-.336,.279-.607,.607-.607,.336,0,.607,.271,.607,.607s-.271,.607-.607,.607c-.328,0-.607-.271-.607-.607Zm.104,5.037v-3.861h1.016v3.861h-1.016Z"/><path d="M439.735,331.087c.312,.344,.72,.48,1.207,.48s1.063-.217,1.063-.976v-.393c-.304,.384-.72,.608-1.191,.608-.967,0-1.703-.68-1.703-1.967,0-1.264,.728-1.968,1.703-1.968,.464,0,.88,.2,1.191,.592v-.495h1.023v3.598c0,1.472-1.135,1.831-2.087,1.831-.663,0-1.184-.152-1.663-.575l.456-.736Zm2.271-2.87c-.168-.256-.535-.439-.871-.439-.576,0-.976,.399-.976,1.063s.399,1.063,.976,1.063c.336,0,.703-.192,.871-.44v-1.247Z"/><path d="M446.813,330.832v-2.334c0-.536-.28-.72-.712-.72-.399,0-.711,.224-.879,.455v2.599h-1.016v-3.861h1.016v.504c.247-.296,.72-.601,1.351-.601,.848,0,1.256,.48,1.256,1.231v2.727h-1.016Z"/><path d="M451.324,330.832v-.399c-.264,.312-.72,.496-1.224,.496-.615,0-1.343-.416-1.343-1.279,0-.904,.728-1.231,1.343-1.231,.512,0,.968,.159,1.224,.472v-.536c0-.392-.336-.647-.848-.647-.415,0-.799,.152-1.127,.456l-.384-.68c.472-.416,1.079-.608,1.687-.608,.88,0,1.688,.353,1.688,1.464v2.494h-1.016Zm0-1.407c-.168-.224-.487-.336-.815-.336-.399,0-.728,.216-.728,.584,0,.36,.328,.567,.728,.567,.328,0,.647-.111,.815-.335v-.48Z"/><path d="M453.507,330.832v-5.333h1.016v5.333h-1.016Z"/><path d="M455.585,325.794c0-.336,.28-.607,.608-.607,.336,0,.607,.271,.607,.607s-.271,.607-.607,.607c-.328,0-.608-.271-.608-.607Zm.104,5.037v-3.861h1.016v3.861h-1.016Z"/><path d="M460.478,330.832v-2.334c0-.536-.28-.72-.712-.72-.399,0-.711,.224-.879,.455v2.599h-1.016v-3.861h1.016v.504c.247-.296,.719-.601,1.351-.601,.848,0,1.256,.48,1.256,1.231v2.727h-1.016Z"/><path d="M463.062,331.087c.312,.344,.72,.48,1.207,.48s1.063-.217,1.063-.976v-.393c-.304,.384-.72,.608-1.191,.608-.968,0-1.703-.68-1.703-1.967,0-1.264,.728-1.968,1.703-1.968,.464,0,.88,.2,1.191,.592v-.495h1.023v3.598c0,1.472-1.136,1.831-2.087,1.831-.664,0-1.184-.152-1.663-.575l.456-.736Zm2.271-2.87c-.168-.256-.536-.439-.872-.439-.575,0-.975,.399-.975,1.063s.399,1.063,.975,1.063c.336,0,.704-.192,.872-.44v-1.247Z"/></g><rect x="20.759" y="17.859" width="229.817" height="299.823" fill="none" stroke="#000" stroke-linecap="round" stroke-miterlimit="10"/><rect x="556.389" y="17.859" width="461.277" height="300.235" fill="none" stroke="#000" stroke-linecap="round" stroke-miterlimit="10"/><line x1="60.975" y1="141.123" x2="60.975" y2="167.459" fill="none" stroke="#343434" stroke-dasharray="0 0 3 3" stroke-linecap="round" stroke-linejoin="round"/><line x1="110.141" y1="141.123" x2="110.141" y2="167.459" fill="none" stroke="#343434" stroke-dasharray="0 0 3 3" stroke-linecap="round" stroke-linejoin="round"/><line x1="161.512" y1="141.123" x2="161.512" y2="167.459" fill="none" stroke="#343434" stroke-dasharray="0 0 3 3" stroke-linecap="round" stroke-linejoin="round"/><line x1="210.678" y1="141.123" x2="210.678" y2="167.459" fill="none" stroke="#343434" stroke-dasharray="0 0 3 3" stroke-linecap="round" stroke-linejoin="round"/><line x1="602.437" y1="101.974" x2="602.437" y2="122.632" fill="none" stroke="#1db14b" stroke-dasharray="0 0 3 3" stroke-linecap="round" stroke-linejoin="round"/><line x1="602.437" y1="154.282" x2="602.437" y2="174.94" fill="none" stroke="#1db14b" stroke-dasharray="0 0 3 3" stroke-linecap="round" stroke-linejoin="round"/><line x1="676.316" y1="154.282" x2="676.316" y2="174.94" fill="none" stroke="#1db14b" stroke-dasharray="0 0 3 3" stroke-linecap="round" stroke-linejoin="round"/><line x1="751.195" y1="154.282" x2="751.195" y2="174.94" fill="none" stroke="#1db14b" stroke-dasharray="0 0 3 3" stroke-linecap="round" stroke-linejoin="round"/><line x1="826.074" y1="154.282" x2="826.074" y2="174.94" fill="none" stroke="#1db14b" stroke-dasharray="0 0 3 3" stroke-linecap="round" stroke-linejoin="round"/><line x1="901.954" y1="154.282" x2="901.954" y2="174.94" fill="none" stroke="#1db14b" stroke-dasharray="0 0 3 3" stroke-linecap="round" stroke-linejoin="round"/><line x1="677.085" y1="101.974" x2="677.085" y2="122.632" fill="none" stroke="#1db14b" stroke-dasharray="0 0 3 3" stroke-linecap="round" stroke-linejoin="round"/><line x1="751.188" y1="101.974" x2="751.188" y2="122.632" fill="none" stroke="#1db14b" stroke-dasharray="0 0 3 3" stroke-linecap="round" stroke-linejoin="round"/><line x1="826.381" y1="101.974" x2="826.381" y2="122.632" fill="none" stroke="#1db14b" stroke-dasharray="0 0 3 3" stroke-linecap="round" stroke-linejoin="round"/><line x1="901.574" y1="101.974" x2="901.574" y2="122.632" fill="none" stroke="#1db14b" stroke-dasharray="0 0 3 3" stroke-linecap="round" stroke-linejoin="round"/><line x1="60.975" y1="197.853" x2="60.975" y2="224.188" fill="none" stroke="#343434" stroke-dasharray="0 0 3 3" stroke-linecap="round" stroke-linejoin="round"/><line x1="110.141" y1="197.853" x2="110.141" y2="224.188" fill="none" stroke="#343434" stroke-dasharray="0 0 3 3" stroke-linecap="round" stroke-linejoin="round"/><line x1="161.512" y1="197.853" x2="161.512" y2="224.188" fill="none" stroke="#343434" stroke-dasharray="0 0 3 3" stroke-linecap="round" stroke-linejoin="round"/><line x1="210.678" y1="197.853" x2="210.678" y2="224.188" fill="none" stroke="#343434" stroke-dasharray="0 0 3 3" stroke-linecap="round" stroke-linejoin="round"/><g><line x1="533.948" y1="170.585" x2="549.357" y2="170.585" fill="none" stroke="#999" stroke-linecap="round" stroke-miterlimit="10" stroke-width=".864"/><polygon points="546.494 174.12 545.904 173.487 549.026 170.586 545.904 167.684 546.494 167.051 550.295 170.586 546.494 174.12" fill="#999"/></g><g><line x1="256.495" y1="170.585" x2="271.904" y2="170.585" fill="none" stroke="#999" stroke-linecap="round" stroke-miterlimit="10" stroke-width=".864"/><polygon points="269.041 174.12 268.451 173.487 271.572 170.586 268.451 167.684 269.041 167.051 272.841 170.586 269.041 174.12" fill="#999"/></g><g><rect x="89.203" y="8.859" width="92.929" height="18"/><path d="M106.13,16.781v4.578h-1.549v-1.489h-2.658v-1.399l1.189-4.208h1.629l-1.189,4.208h1.029v-1.689h1.549Z" fill="#fff"/><path d="M110.177,16.821v-.709c0-.36-.329-.6-.789-.6s-.8,.24-.8,.6v3.398c0,.36,.34,.6,.79,.6,.47,0,.799-.24,.799-.6v-.6h-.81v-1.399h2.359v1.979c0,1.189-.92,2.019-2.339,2.019s-2.349-.83-2.349-2.019v-3.358c0-1.189,.919-2.019,2.339-2.019s2.349,.83,2.349,2.019v.689h-1.55Z" fill="#fff"/><path d="M118.387,19.96v1.399h-3.688v-7.096h1.55v5.697h2.139Z" fill="#fff"/><path d="M122.759,15.662h-1.47v5.697h-1.549v-5.697h-1.479v-1.399h4.498v1.399Z" fill="#fff"/><path d="M125.067,15.662v1.549h1.719v1.399h-1.719v1.349h2.119v1.399h-3.668v-7.096h3.668v1.399h-2.119Z" fill="#fff"/><path d="M134.595,14.263v7.096h-1.359l-1.849-4.038v4.038h-1.35v-7.096h1.35l1.849,4.058v-4.058h1.359Z" fill="#fff"/><path d="M137.132,15.662v1.549h1.719v1.399h-1.719v1.349h2.118v1.399h-3.668v-7.096h3.668v1.399h-2.118Z" fill="#fff"/><path d="M144.399,15.662h-1.47v5.697h-1.549v-5.697h-1.479v-1.399h4.498v1.399Z" fill="#fff"/><path d="M152.854,14.263l-1.52,7.096h-1.609l-.789-3.858-.79,3.858h-1.609l-1.519-7.096h1.608l.79,4.837,.92-4.837h1.188l.97,4.828,.77-4.828h1.59Z" fill="#fff"/><path d="M153.484,19.49v-3.358c0-1.189,.919-2.019,2.358-2.019,1.43,0,2.358,.83,2.358,2.019v3.358c0,1.189-.919,2.019-2.349,2.019-1.438,0-2.368-.83-2.368-2.019Zm3.168,.02v-3.398c0-.36-.24-.6-.8-.6-.579,0-.819,.24-.819,.6v3.398c0,.36,.24,.6,.81,.6s.81-.24,.81-.6Z" fill="#fff"/><path d="M161.423,18.8h-.739v2.559h-1.55v-7.096h2.359c1.239,0,2.118,.79,2.118,1.939v.66c0,.63-.27,1.159-.709,1.499l.919,2.999h-1.619l-.779-2.559Zm-.739-1.399h.909c.29,0,.47-.18,.47-.47v-.799c0-.29-.18-.47-.46-.47h-.919v1.739Z" fill="#fff"/><path d="M167.812,21.359l-1.599-3.348v3.348h-1.55v-7.096h1.55v3.158l1.479-3.158h1.739l-1.579,3.438,1.709,3.658h-1.749Z" fill="#fff"/></g><rect x="28.194" y="83.925" width="214.947" height="185" fill="none" stroke="#999" stroke-linecap="round" stroke-miterlimit="10"/><g><rect x="103.759" y="75.299" width="63.817" height="18" fill="#999"/><path d="M111.086,80.703h1.55v7.096h-1.55v-7.096Z" fill="#fff"/><path d="M118.09,82.642v.91c0,1.149-.87,1.949-2.109,1.949h-.819v2.299h-1.549v-7.096h2.358c1.239,0,2.119,.8,2.119,1.939Zm-1.549-.07c0-.28-.181-.47-.46-.47h-.92v1.999h.91c.289,0,.47-.19,.47-.48v-1.049Z" fill="#fff"/><path d="M125.5,80.703v7.096h-1.359l-1.85-4.038v4.038h-1.349v-7.096h1.349l1.85,4.058v-4.058h1.359Z" fill="#fff"/><path d="M128.036,82.103v1.549h1.719v1.399h-1.719v1.349h2.119v1.399h-3.668v-7.096h3.668v1.399h-2.119Z" fill="#fff"/><path d="M135.303,82.103h-1.469v5.697h-1.55v-5.697h-1.479v-1.399h4.497v1.399Z" fill="#fff"/><path d="M143.758,80.703l-1.52,7.096h-1.608l-.79-3.858-.789,3.858h-1.609l-1.52-7.096h1.609l.79,4.837,.919-4.837h1.189l.97,4.828,.77-4.828h1.589Z" fill="#fff"/><path d="M144.388,85.93v-3.358c0-1.189,.92-2.019,2.359-2.019,1.429,0,2.358,.83,2.358,2.019v3.358c0,1.189-.92,2.019-2.349,2.019-1.439,0-2.369-.83-2.369-2.019Zm3.169,.02v-3.398c0-.36-.24-.6-.8-.6-.58,0-.819,.24-.819,.6v3.398c0,.36,.239,.6,.81,.6s.81-.24,.81-.6Z" fill="#fff"/><path d="M152.328,85.241h-.74v2.559h-1.549v-7.096h2.358c1.239,0,2.119,.79,2.119,1.939v.66c0,.63-.27,1.159-.71,1.499l.92,2.999h-1.619l-.779-2.559Zm-.74-1.399h.91c.289,0,.47-.18,.47-.47v-.799c0-.29-.181-.47-.46-.47h-.92v1.739Z" fill="#fff"/><path d="M158.716,87.799l-1.599-3.348v3.348h-1.55v-7.096h1.55v3.158l1.479-3.158h1.739l-1.579,3.438,1.709,3.658h-1.749Z" fill="#fff"/></g><g><rect x="120.059" y="92.84" width="30.765" height="179.554" rx=".962" ry=".962" transform="translate(-47.175 318.059) rotate(-90)" fill="none" stroke="#000" stroke-linecap="round" stroke-linejoin="round"/><g><path d="M124.812,186.036v-7.338h2.51c2.277,0,3.762,1.595,3.762,3.675s-1.484,3.663-3.762,3.663h-2.51Zm.914-.814h1.596c1.781,0,2.816-1.275,2.816-2.849,0-1.585-1.002-2.861-2.816-2.861h-1.596v5.71Z"/><path d="M136.65,186.036l-1.871-2.915h-1.463v2.915h-.913v-7.338h2.948c1.343,0,2.3,.858,2.3,2.211,0,1.32-.902,2.047-1.903,2.135l1.98,2.992h-1.078Zm-1.408-6.524h-1.926v2.806h1.926c.869,0,1.463-.583,1.463-1.408s-.594-1.397-1.463-1.397Z"/><path d="M144.25,186.036l-.649-1.628h-3.719l-.648,1.628h-1.012l2.947-7.338h1.134l2.96,7.338h-1.013Zm-2.509-6.524l-1.595,4.082h3.179l-1.584-4.082Z"/></g></g><g><rect x="194.785" y="110.048" width="30.765" height="30.765" rx=".962" ry=".962" transform="translate(84.737 335.598) rotate(-90)" fill="none" stroke="#000" stroke-linecap="round" stroke-linejoin="round"/><g><path d="M204.152,121.39c2.168,0,3.642,1.628,3.642,3.796s-1.474,3.795-3.642,3.795-3.642-1.628-3.642-3.795,1.464-3.796,3.642-3.796Zm0,.814c-1.65,0-2.695,1.265-2.695,2.981,0,1.705,1.045,2.981,2.695,2.981,1.64,0,2.695-1.276,2.695-2.981,0-1.717-1.056-2.981-2.695-2.981Z"/><path d="M210.631,128.849v-6.524h-2.321v-.813h5.566v.813h-2.332v6.524h-.913Z"/><path d="M216.79,128.849v-6.524h-2.321v-.813h5.567v.813h-2.333v6.524h-.913Z"/></g><rect x="145.785" y="110.048" width="30.765" height="30.765" rx=".962" ry=".962" transform="translate(35.737 286.598) rotate(-90)" fill="none" stroke="#000" stroke-linecap="round" stroke-linejoin="round"/><g><path d="M154.332,121.39c2.167,0,3.642,1.628,3.642,3.796s-1.475,3.795-3.642,3.795c-2.179,0-3.642-1.628-3.642-3.795s1.463-3.796,3.642-3.796Zm0,.814c-1.65,0-2.695,1.265-2.695,2.981,0,1.705,1.045,2.981,2.695,2.981,1.639,0,2.695-1.276,2.695-2.981,0-1.717-1.057-2.981-2.695-2.981Z"/><path d="M158.995,125.186c0-2.256,1.661-3.796,3.741-3.796,1.331,0,2.233,.627,2.816,1.452l-.771,.429c-.418-.616-1.177-1.066-2.046-1.066-1.573,0-2.795,1.231-2.795,2.981,0,1.738,1.222,2.981,2.795,2.981,.869,0,1.628-.44,2.046-1.067l.781,.429c-.616,.836-1.496,1.452-2.827,1.452-2.08,0-3.741-1.54-3.741-3.795Z"/><path d="M166.717,127.122c.484,.539,1.276,1.046,2.311,1.046,1.31,0,1.728-.704,1.728-1.266,0-.88-.892-1.122-1.859-1.386-1.177-.309-2.486-.639-2.486-2.08,0-1.21,1.078-2.035,2.52-2.035,1.122,0,1.991,.374,2.607,1.023l-.551,.671c-.55-.605-1.319-.88-2.123-.88-.88,0-1.507,.473-1.507,1.166,0,.737,.847,.957,1.782,1.21,1.199,.319,2.563,.693,2.563,2.233,0,1.067-.727,2.156-2.707,2.156-1.275,0-2.211-.483-2.816-1.166l.539-.693Z"/></g><rect x="95.785" y="110.048" width="30.765" height="30.765" rx=".962" ry=".962" transform="translate(-14.263 236.598) rotate(-90)" fill="none" stroke="#000" stroke-linecap="round" stroke-linejoin="round"/><g><path d="M98.875,128.849v-7.338h2.949c1.474,0,2.299,1.012,2.299,2.211s-.847,2.212-2.299,2.212h-2.035v2.915h-.914Zm2.839-6.524h-1.925v2.795h1.925c.869,0,1.463-.572,1.463-1.397s-.594-1.397-1.463-1.397Z"/><path d="M104.926,125.186c0-2.256,1.661-3.796,3.74-3.796,1.331,0,2.233,.627,2.816,1.452l-.77,.429c-.419-.616-1.178-1.066-2.047-1.066-1.573,0-2.794,1.231-2.794,2.981,0,1.738,1.221,2.981,2.794,2.981,.869,0,1.628-.44,2.047-1.067l.78,.429c-.616,.836-1.496,1.452-2.827,1.452-2.079,0-3.74-1.54-3.74-3.795Z"/><path d="M116.795,128.849l-1.87-2.915h-1.463v2.915h-.914v-7.338h2.949c1.342,0,2.299,.858,2.299,2.211,0,1.32-.902,2.047-1.903,2.135l1.98,2.992h-1.078Zm-1.408-6.524h-1.925v2.806h1.925c.869,0,1.463-.583,1.463-1.408s-.594-1.397-1.463-1.397Z"/><path d="M119.126,128.849v-7.338h4.809v.813h-3.895v2.366h3.817v.813h-3.817v3.345h-.914Z"/></g><rect x="45.785" y="110.048" width="30.765" height="30.765" rx=".962" ry=".962" transform="translate(-64.263 186.598) rotate(-90)" fill="none" stroke="#000" stroke-linecap="round" stroke-linejoin="round"/><g><path d="M56.978,128.849v-3.366h-4.29v3.366h-.914v-7.338h.914v3.157h4.29v-3.157h.913v7.338h-.913Z"/><path d="M59.595,127.122c.484,.539,1.276,1.046,2.311,1.046,1.31,0,1.728-.704,1.728-1.266,0-.88-.892-1.122-1.859-1.386-1.177-.309-2.486-.639-2.486-2.08,0-1.21,1.078-2.035,2.52-2.035,1.122,0,1.991,.374,2.607,1.023l-.551,.671c-.55-.605-1.319-.88-2.123-.88-.88,0-1.507,.473-1.507,1.166,0,.737,.847,.957,1.782,1.21,1.199,.319,2.563,.693,2.563,2.233,0,1.067-.727,2.156-2.707,2.156-1.275,0-2.211-.483-2.816-1.166l.539-.693Z"/><path d="M65.931,127.122c.484,.539,1.276,1.046,2.311,1.046,1.309,0,1.727-.704,1.727-1.266,0-.88-.891-1.122-1.859-1.386-1.177-.309-2.486-.639-2.486-2.08,0-1.21,1.078-2.035,2.52-2.035,1.122,0,1.991,.374,2.607,1.023l-.55,.671c-.55-.605-1.32-.88-2.123-.88-.881,0-1.508,.473-1.508,1.166,0,.737,.848,.957,1.782,1.21,1.199,.319,2.563,.693,2.563,2.233,0,1.067-.726,2.156-2.706,2.156-1.276,0-2.212-.483-2.816-1.166l.539-.693Z"/></g></g><g><rect x="194.785" y="224.421" width="30.765" height="30.765" rx=".962" ry=".962" transform="translate(-29.636 449.971) rotate(-90)" fill="none" stroke="#000" stroke-linecap="round" stroke-linejoin="round"/><g><path d="M197.21,239.559c0-2.256,1.66-3.796,3.74-3.796,1.331,0,2.233,.627,2.816,1.452l-.77,.429c-.419-.616-1.178-1.066-2.047-1.066-1.573,0-2.795,1.231-2.795,2.981,0,1.738,1.222,2.981,2.795,2.981,.869,0,1.628-.44,2.047-1.067l.78,.429c-.616,.836-1.496,1.452-2.827,1.452-2.08,0-3.74-1.54-3.74-3.795Z"/><path d="M204.932,241.495c.484,.539,1.276,1.046,2.311,1.046,1.31,0,1.728-.704,1.728-1.266,0-.88-.892-1.122-1.859-1.386-1.178-.309-2.486-.639-2.486-2.08,0-1.21,1.078-2.035,2.52-2.035,1.121,0,1.99,.374,2.607,1.023l-.551,.671c-.55-.605-1.32-.88-2.123-.88-.881,0-1.508,.473-1.508,1.166,0,.737,.848,.957,1.783,1.21,1.199,.319,2.562,.693,2.562,2.233,0,1.067-.726,2.156-2.706,2.156-1.276,0-2.212-.483-2.816-1.166l.539-.693Z"/><path d="M210.871,239.559c0-2.256,1.661-3.796,3.741-3.796,1.33,0,2.232,.627,2.816,1.452l-.771,.429c-.419-.616-1.177-1.066-2.046-1.066-1.574,0-2.795,1.231-2.795,2.981,0,1.738,1.221,2.981,2.795,2.981,.869,0,1.627-.44,2.046-1.067l.78,.429c-.615,.836-1.496,1.452-2.826,1.452-2.08,0-3.741-1.54-3.741-3.795Z"/><path d="M218.494,243.222v-7.338h4.808v.813h-3.895v2.366h3.818v.813h-3.818v3.345h-.913Z"/></g><rect x="145.785" y="224.421" width="30.765" height="30.765" rx=".962" ry=".962" transform="translate(-78.636 400.971) rotate(-90)" fill="none" stroke="#000" stroke-linecap="round" stroke-linejoin="round"/><g><path d="M156.378,243.222v-6.105l-2.497,6.105h-.374l-2.486-6.105v6.105h-.914v-7.338h1.311l2.277,5.589,2.287-5.589h1.31v7.338h-.913Z"/><path d="M165.167,243.222v-6.105l-2.497,6.105h-.374l-2.486-6.105v6.105h-.914v-7.338h1.311l2.277,5.589,2.287-5.589h1.31v7.338h-.913Z"/><path d="M167.685,243.222v-7.338h4.809v.813h-3.895v2.366h3.816v.813h-3.816v2.53h3.895v.814h-4.809Z"/></g><rect x="95.785" y="224.421" width="30.765" height="30.765" rx=".962" ry=".962" transform="translate(-128.636 350.971) rotate(-90)" fill="none" stroke="#000" stroke-linecap="round" stroke-linejoin="round"/><g><path d="M110.585,243.222l-.648-1.628h-3.719l-.648,1.628h-1.013l2.948-7.338h1.133l2.96,7.338h-1.013Zm-2.508-6.524l-1.596,4.082h3.18l-1.584-4.082Z"/><path d="M112.389,241.495c.484,.539,1.276,1.046,2.311,1.046,1.31,0,1.728-.704,1.728-1.266,0-.88-.892-1.122-1.859-1.386-1.178-.309-2.486-.639-2.486-2.08,0-1.21,1.078-2.035,2.52-2.035,1.121,0,1.99,.374,2.607,1.023l-.551,.671c-.55-.605-1.32-.88-2.123-.88-.881,0-1.508,.473-1.508,1.166,0,.737,.848,.957,1.783,1.21,1.199,.319,2.562,.693,2.562,2.233,0,1.067-.726,2.156-2.706,2.156-1.276,0-2.212-.483-2.816-1.166l.539-.693Z"/></g><rect x="45.785" y="224.421" width="30.765" height="30.765" rx=".962" ry=".962" transform="translate(-178.636 300.971) rotate(-90)" fill="none" stroke="#000" stroke-linecap="round" stroke-linejoin="round"/><g><path d="M48.656,241.495c.484,.539,1.276,1.046,2.311,1.046,1.31,0,1.728-.704,1.728-1.266,0-.88-.892-1.122-1.859-1.386-1.177-.309-2.486-.639-2.486-2.08,0-1.21,1.078-2.035,2.52-2.035,1.122,0,1.991,.374,2.607,1.023l-.551,.671c-.55-.605-1.319-.88-2.123-.88-.88,0-1.507,.473-1.507,1.166,0,.737,.847,.957,1.782,1.21,1.199,.319,2.563,.693,2.563,2.233,0,1.067-.727,2.156-2.707,2.156-1.275,0-2.211-.483-2.816-1.166l.539-.693Z"/><path d="M54.365,240.922v-.726h2.641v.726h-2.641Z"/><path d="M61.559,235.763c1.298,0,2.2,.572,2.85,1.375l-.727,.451c-.462-.594-1.243-1.012-2.123-1.012-1.606,0-2.827,1.231-2.827,2.981,0,1.738,1.221,2.992,2.827,2.992,.88,0,1.606-.43,1.969-.792v-1.496h-2.519v-.814h3.432v2.651c-.682,.759-1.683,1.265-2.882,1.265-2.091,0-3.773-1.528-3.773-3.806s1.683-3.796,3.773-3.796Z"/><path d="M71.393,243.222l-1.617-5.919-1.617,5.919h-.99l-2.09-7.338h1.012l1.629,6.117,1.683-6.117h.76l1.683,6.117,1.617-6.117h1.013l-2.091,7.338h-.99Z"/></g></g><g><path d="M84.739,331.842v-5.333h2.103c1.671,0,2.83,1.063,2.83,2.67s-1.159,2.663-2.83,2.663h-2.103Zm1.135-1h.968c1.056,0,1.671-.76,1.671-1.663,0-.943-.575-1.671-1.671-1.671h-.968v3.334Z"/><path d="M90.564,326.805c0-.336,.279-.608,.607-.608,.336,0,.607,.272,.607,.608s-.271,.607-.607,.607c-.328,0-.607-.272-.607-.607Zm.104,5.037v-3.862h1.016v3.862h-1.016Z"/><path d="M95.162,331.842v-.4c-.264,.312-.72,.496-1.224,.496-.615,0-1.343-.416-1.343-1.279,0-.903,.728-1.231,1.343-1.231,.512,0,.968,.16,1.224,.472v-.535c0-.393-.336-.648-.848-.648-.416,0-.8,.152-1.127,.456l-.384-.68c.472-.416,1.079-.607,1.687-.607,.88,0,1.688,.352,1.688,1.463v2.495h-1.016Zm0-1.407c-.168-.225-.487-.336-.815-.336-.4,0-.728,.216-.728,.584,0,.359,.327,.567,.728,.567,.328,0,.647-.112,.815-.336v-.479Z"/><path d="M102.134,331.842v-2.438c0-.36-.159-.616-.575-.616-.36,0-.655,.24-.8,.448v2.606h-1.023v-2.438c0-.36-.16-.616-.575-.616-.353,0-.648,.24-.8,.456v2.599h-1.016v-3.862h1.016v.504c.16-.231,.672-.6,1.264-.6,.567,0,.927,.264,1.071,.703,.224-.352,.735-.703,1.327-.703,.711,0,1.135,.376,1.135,1.167v2.791h-1.023Z"/><path d="M106.095,327.884c1.151,0,1.935,.863,1.935,2.127v.224h-2.87c.063,.487,.455,.896,1.111,.896,.359,0,.783-.144,1.031-.384l.447,.655c-.392,.36-.991,.536-1.591,.536-1.175,0-2.062-.792-2.062-2.031,0-1.119,.823-2.022,1.999-2.022Zm-.952,1.663h1.903c-.024-.368-.28-.855-.951-.855-.632,0-.904,.472-.952,.855Z"/><path d="M109.169,330.882v-2.015h-.64v-.888h.64v-1.056h1.023v1.056h.783v.888h-.783v1.743c0,.239,.128,.424,.352,.424,.152,0,.296-.057,.352-.112l.216,.768c-.151,.136-.424,.248-.848,.248-.711,0-1.095-.368-1.095-1.056Z"/><path d="M113.595,327.884c1.151,0,1.935,.863,1.935,2.127v.224h-2.87c.063,.487,.455,.896,1.111,.896,.359,0,.783-.144,1.031-.384l.447,.655c-.392,.36-.991,.536-1.591,.536-1.175,0-2.062-.792-2.062-2.031,0-1.119,.823-2.022,1.999-2.022Zm-.952,1.663h1.903c-.024-.368-.28-.855-.951-.855-.632,0-.904,.472-.952,.855Z"/><path d="M116.45,331.842v-3.862h1.016v.528c.271-.345,.752-.616,1.231-.616v.991c-.072-.016-.168-.023-.28-.023-.336,0-.783,.184-.951,.432v2.551h-1.016Z"/><path d="M123.856,331.842v-.4c-.264,.312-.719,.496-1.223,.496-.616,0-1.344-.416-1.344-1.279,0-.903,.728-1.231,1.344-1.231,.512,0,.967,.16,1.223,.472v-.535c0-.393-.335-.648-.847-.648-.416,0-.8,.152-1.128,.456l-.384-.68c.472-.416,1.079-.607,1.688-.607,.879,0,1.687,.352,1.687,1.463v2.495h-1.016Zm0-1.407c-.167-.225-.487-.336-.815-.336-.399,0-.728,.216-.728,.584,0,.359,.328,.567,.728,.567,.328,0,.648-.112,.815-.336v-.479Z"/><path d="M128.646,331.842v-2.335c0-.536-.279-.72-.711-.72-.4,0-.712,.224-.88,.456v2.599h-1.016v-3.862h1.016v.504c.248-.296,.72-.6,1.352-.6,.847,0,1.255,.479,1.255,1.231v2.727h-1.016Z"/><path d="M133.509,331.842v-.488c-.304,.376-.728,.584-1.191,.584-.976,0-1.711-.735-1.711-2.022,0-1.264,.728-2.031,1.711-2.031,.456,0,.888,.2,1.191,.592v-1.967h1.023v5.333h-1.023Zm0-2.615c-.176-.256-.536-.439-.88-.439-.575,0-.976,.456-.976,1.128,0,.663,.4,1.119,.976,1.119,.344,0,.704-.185,.88-.44v-1.367Z"/><path d="M138.031,330.227c.375,.392,.959,.72,1.694,.72,.624,0,.928-.296,.928-.6,0-.4-.464-.536-1.079-.68-.872-.2-1.991-.44-1.991-1.632,0-.887,.768-1.606,2.023-1.606,.847,0,1.551,.256,2.078,.743l-.631,.832c-.433-.4-1.008-.584-1.527-.584-.512,0-.784,.224-.784,.544,0,.359,.448,.472,1.063,.615,.88,.2,1.999,.464,1.999,1.647,0,.976-.695,1.711-2.135,1.711-1.023,0-1.759-.344-2.263-.848l.624-.863Z"/><path d="M142.823,331.842v-5.333h1.136v5.333h-1.136Z"/><path d="M145.256,331.842v-5.333h2.495c1.159,0,1.791,.783,1.791,1.719,0,.928-.64,1.703-1.791,1.703h-1.359v1.911h-1.136Zm2.343-4.357h-1.207v1.471h1.207c.448,0,.783-.288,.783-.735,0-.44-.335-.735-.783-.735Z"/><path d="M152.712,330.227c.376,.392,.96,.72,1.695,.72,.624,0,.928-.296,.928-.6,0-.4-.464-.536-1.08-.68-.871-.2-1.99-.44-1.99-1.632,0-.887,.768-1.606,2.022-1.606,.848,0,1.551,.256,2.079,.743l-.632,.832c-.432-.4-1.008-.584-1.527-.584-.512,0-.783,.224-.783,.544,0,.359,.447,.472,1.063,.615,.879,.2,1.999,.464,1.999,1.647,0,.976-.696,1.711-2.135,1.711-1.023,0-1.76-.344-2.263-.848l.623-.863Z"/><path d="M157.324,326.805c0-.336,.279-.608,.607-.608,.336,0,.607,.272,.607,.608s-.271,.607-.607,.607c-.328,0-.607-.272-.607-.607Zm.104,5.037v-3.862h1.016v3.862h-1.016Z"/><path d="M159.994,332.098c.312,.344,.72,.479,1.207,.479s1.063-.216,1.063-.976v-.392c-.304,.384-.72,.607-1.191,.607-.967,0-1.703-.68-1.703-1.967,0-1.264,.728-1.967,1.703-1.967,.464,0,.88,.2,1.191,.592v-.496h1.023v3.599c0,1.471-1.135,1.83-2.087,1.83-.663,0-1.184-.151-1.663-.575l.456-.735Zm2.271-2.871c-.168-.256-.535-.439-.871-.439-.576,0-.976,.399-.976,1.063s.399,1.063,.976,1.063c.336,0,.703-.192,.871-.439v-1.248Z"/><path d="M167.073,331.842v-2.335c0-.536-.28-.72-.712-.72-.399,0-.712,.224-.88,.456v2.599h-1.015v-3.862h1.015v.504c.248-.296,.72-.6,1.352-.6,.848,0,1.256,.479,1.256,1.231v2.727h-1.016Z"/><path d="M171.583,331.842v-.4c-.264,.312-.719,.496-1.223,.496-.616,0-1.344-.416-1.344-1.279,0-.903,.728-1.231,1.344-1.231,.512,0,.967,.16,1.223,.472v-.535c0-.393-.335-.648-.847-.648-.416,0-.8,.152-1.128,.456l-.384-.68c.472-.416,1.079-.607,1.688-.607,.879,0,1.687,.352,1.687,1.463v2.495h-1.016Zm0-1.407c-.167-.225-.487-.336-.815-.336-.399,0-.728,.216-.728,.584,0,.359,.328,.567,.728,.567,.328,0,.648-.112,.815-.336v-.479Z"/><path d="M173.767,331.842v-5.333h1.016v5.333h-1.016Z"/><path d="M175.845,326.805c0-.336,.28-.608,.607-.608,.337,0,.608,.272,.608,.608s-.271,.607-.608,.607c-.327,0-.607-.272-.607-.607Zm.104,5.037v-3.862h1.016v3.862h-1.016Z"/><path d="M180.739,331.842v-2.335c0-.536-.28-.72-.712-.72-.399,0-.711,.224-.879,.456v2.599h-1.016v-3.862h1.016v.504c.247-.296,.72-.6,1.351-.6,.848,0,1.256,.479,1.256,1.231v2.727h-1.016Z"/><path d="M183.324,332.098c.312,.344,.72,.479,1.207,.479s1.063-.216,1.063-.976v-.392c-.304,.384-.72,.607-1.191,.607-.968,0-1.703-.68-1.703-1.967,0-1.264,.728-1.967,1.703-1.967,.464,0,.88,.2,1.191,.592v-.496h1.023v3.599c0,1.471-1.136,1.83-2.087,1.83-.664,0-1.184-.151-1.663-.575l.456-.735Zm2.271-2.871c-.168-.256-.536-.439-.872-.439-.575,0-.975,.399-.975,1.063s.399,1.063,.975,1.063c.336,0,.704-.192,.872-.439v-1.248Z"/></g><line x1="676.134" y1="206.872" x2="603.484" y2="263.176" fill="none" stroke="#1db14b" stroke-dasharray="0 0 3 3" stroke-linecap="round" stroke-miterlimit="10" stroke-width=".864"/><line x1="676.134" y1="206.872" x2="691.191" y2="264.374" fill="none" stroke="#1db14b" stroke-dasharray="0 0 3 3" stroke-linecap="round" stroke-miterlimit="10" stroke-width=".864"/><line x1="751.327" y1="206.872" x2="778.207" y2="256.274" fill="none" stroke="#1db14b" stroke-dasharray="0 0 3 3" stroke-linecap="round" stroke-miterlimit="10" stroke-width=".864"/><g><rect x="749.572" y="8.859" width="74.911" height="18"/><path d="M765.209,18.771v.79c0,1.149-.899,1.949-2.118,1.949-1.229,0-2.119-.799-2.119-1.949v-.64h1.549v.75c0,.3,.2,.479,.57,.479s.569-.18,.569-.479v-1.01c0-.28-.13-.45-.34-.45h-2.159v-3.948h3.778v1.399h-2.229v1.189h.629c1.09,0,1.869,.79,1.869,1.919Z" fill="#fff"/><path d="M769.236,16.821v-.709c0-.36-.329-.6-.789-.6s-.8,.24-.8,.6v3.398c0,.36,.34,.6,.79,.6,.47,0,.799-.24,.799-.6v-.6h-.81v-1.399h2.359v1.979c0,1.189-.92,2.019-2.339,2.019s-2.349-.83-2.349-2.019v-3.358c0-1.189,.919-2.019,2.339-2.019s2.349,.83,2.349,2.019v.689h-1.55Z" fill="#fff"/><path d="M778.315,14.263v7.096h-1.359l-1.849-4.038v4.038h-1.35v-7.096h1.35l1.849,4.058v-4.058h1.359Z" fill="#fff"/><path d="M780.851,15.662v1.549h1.72v1.399h-1.72v1.349h2.119v1.399h-3.668v-7.096h3.668v1.399h-2.119Z" fill="#fff"/><path d="M788.118,15.662h-1.469v5.697h-1.55v-5.697h-1.479v-1.399h4.497v1.399Z" fill="#fff"/><path d="M796.573,14.263l-1.52,7.096h-1.608l-.79-3.858-.789,3.858h-1.609l-1.52-7.096h1.609l.79,4.837,.919-4.837h1.189l.97,4.828,.77-4.828h1.589Z" fill="#fff"/><path d="M797.203,19.49v-3.358c0-1.189,.919-2.019,2.358-2.019,1.43,0,2.358,.83,2.358,2.019v3.358c0,1.189-.919,2.019-2.349,2.019-1.438,0-2.368-.83-2.368-2.019Zm3.168,.02v-3.398c0-.36-.24-.6-.8-.6-.579,0-.819,.24-.819,.6v3.398c0,.36,.24,.6,.81,.6s.81-.24,.81-.6Z" fill="#fff"/><path d="M805.143,18.8h-.74v2.559h-1.549v-7.096h2.358c1.239,0,2.119,.79,2.119,1.939v.66c0,.63-.27,1.159-.71,1.499l.92,2.999h-1.619l-.779-2.559Zm-.74-1.399h.91c.289,0,.47-.18,.47-.47v-.799c0-.29-.181-.47-.46-.47h-.92v1.739Z" fill="#fff"/><path d="M811.532,21.359l-1.6-3.348v3.348h-1.549v-7.096h1.549v3.158l1.479-3.158h1.739l-1.579,3.438,1.709,3.658h-1.749Z" fill="#fff"/></g><rect x="587.084" y="122.706" width="408.044" height="30.765" rx="1.071" ry="1.071" transform="translate(1582.212 276.177) rotate(-180)" fill="none" stroke="#000" stroke-linecap="round" stroke-linejoin="round"/><rect x="661.251" y="175.588" width="30.765" height="30.765" rx=".962" ry=".962" transform="translate(485.663 867.605) rotate(-90)" fill="none" stroke="#000" stroke-linecap="round" stroke-linejoin="round"/><g><path d="M671.779,194.531l-.648-1.628h-3.719l-.649,1.628h-1.012l2.948-7.338h1.133l2.96,7.338h-1.013Zm-2.508-6.524l-1.596,4.082h3.18l-1.584-4.082Z"/><path d="M679.908,194.531v-6.105l-2.497,6.105h-.374l-2.486-6.105v6.105h-.913v-7.338h1.31l2.277,5.589,2.288-5.589h1.309v7.338h-.913Z"/><path d="M682.425,194.531v-7.338h4.809v.813h-3.895v2.366h3.817v.813h-3.817v3.345h-.914Z"/></g><rect x="735.961" y="175.588" width="30.765" height="30.765" rx=".962" ry=".962" transform="translate(560.372 942.314) rotate(-90)" fill="none" stroke="#000" stroke-linecap="round" stroke-linejoin="round"/><g><path d="M741.712,192.803c.484,.539,1.277,1.046,2.311,1.046,1.31,0,1.728-.704,1.728-1.266,0-.88-.892-1.122-1.859-1.386-1.177-.309-2.486-.639-2.486-2.08,0-1.21,1.078-2.035,2.52-2.035,1.122,0,1.991,.374,2.607,1.023l-.55,.671c-.551-.605-1.32-.88-2.123-.88-.881,0-1.508,.473-1.508,1.166,0,.737,.848,.957,1.782,1.21,1.199,.319,2.563,.693,2.563,2.233,0,1.067-.727,2.156-2.707,2.156-1.275,0-2.211-.484-2.816-1.166l.539-.693Z"/><path d="M754.22,194.531v-6.105l-2.496,6.105h-.375l-2.486-6.105v6.105h-.913v-7.338h1.31l2.277,5.589,2.288-5.589h1.31v7.338h-.914Z"/><path d="M756.738,194.531v-7.338h4.809v.813h-3.895v2.366h3.817v.813h-3.817v3.345h-.914Z"/></g><rect x="885.379" y="175.588" width="30.765" height="30.765" rx=".962" ry=".962" transform="translate(709.791 1091.732) rotate(-90)" fill="none" stroke="#000" stroke-linecap="round" stroke-linejoin="round"/><g><path d="M892.023,194.389v-7.338h3.268c1.276,0,2.058,.77,2.058,1.871,0,.924-.616,1.539-1.288,1.684,.781,.121,1.431,.924,1.431,1.803,0,1.178-.781,1.98-2.123,1.98h-3.345Zm.913-4.158h2.2c.825,0,1.266-.506,1.266-1.178,0-.66-.44-1.188-1.266-1.188h-2.2v2.365Zm0,3.344h2.244c.858,0,1.364-.482,1.364-1.264,0-.672-.462-1.266-1.364-1.266h-2.244v2.529Z"/><path d="M898.931,192.663c.484,.539,1.276,1.045,2.311,1.045,1.309,0,1.727-.703,1.727-1.266,0-.879-.891-1.121-1.859-1.385-1.177-.309-2.486-.639-2.486-2.08,0-1.211,1.078-2.035,2.52-2.035,1.122,0,1.991,.373,2.607,1.023l-.55,.67c-.55-.605-1.32-.879-2.123-.879-.881,0-1.508,.473-1.508,1.166,0,.736,.848,.957,1.782,1.209,1.199,.32,2.563,.693,2.563,2.234,0,1.066-.726,2.156-2.706,2.156-1.276,0-2.212-.484-2.816-1.166l.539-.693Z"/><path d="M905.167,194.389v-7.338h4.808v.814h-3.895v2.365h3.817v.814h-3.817v3.344h-.913Z"/></g><rect x="810.67" y="175.588" width="30.765" height="30.765" rx=".962" ry=".962" transform="translate(635.081 1017.023) rotate(-90)" fill="none" stroke="#000" stroke-linecap="round" stroke-linejoin="round"/><g><path d="M825.591,194.389l-.648-1.627h-3.719l-.648,1.627h-1.013l2.948-7.338h1.133l2.96,7.338h-1.013Zm-2.508-6.523l-1.596,4.082h3.18l-1.584-4.082Z"/><path d="M827.45,194.389v-7.338h4.808v.814h-3.895v2.365h3.818v.814h-3.818v3.344h-.913Z"/></g><rect x="586.542" y="175.588" width="30.765" height="30.765" rx=".962" ry=".962" transform="translate(410.954 792.896) rotate(-90)" fill="none" stroke="#000" stroke-linecap="round" stroke-linejoin="round"/><g><path d="M592.921,194.389v-7.338h2.949c1.474,0,2.299,1.012,2.299,2.211s-.848,2.213-2.299,2.213h-2.035v2.914h-.914Zm2.838-6.523h-1.924v2.795h1.924c.869,0,1.464-.572,1.464-1.398s-.595-1.396-1.464-1.396Z"/><path d="M598.972,190.727c0-2.256,1.66-3.797,3.74-3.797,1.331,0,2.233,.627,2.816,1.453l-.77,.428c-.419-.615-1.178-1.066-2.047-1.066-1.573,0-2.795,1.232-2.795,2.982,0,1.738,1.222,2.98,2.795,2.98,.869,0,1.628-.439,2.047-1.066l.78,.428c-.616,.836-1.496,1.453-2.827,1.453-2.08,0-3.74-1.541-3.74-3.795Z"/><path d="M606.594,194.389v-7.338h4.808v.814h-3.895v2.365h3.818v.814h-3.818v3.344h-.913Z"/></g><g><g><rect x="661.251" y="70.907" width="30.765" height="30.765" rx=".962" ry=".962" transform="translate(590.344 762.924) rotate(-90)" fill="none" stroke="#000" stroke-linecap="round" stroke-linejoin="round"/><g><path d="M669.354,89.85l-.649-1.628h-3.719l-.648,1.628h-1.013l2.948-7.338h1.134l2.959,7.338h-1.012Zm-2.509-6.524l-1.595,4.082h3.179l-1.584-4.082Z"/><path d="M670.926,82.512h.913v4.467c0,1.342,.727,2.189,2.079,2.189s2.079-.848,2.079-2.189v-4.467h.913v4.478c0,1.826-1.001,2.992-2.992,2.992s-2.992-1.177-2.992-2.981v-4.488Z"/><path d="M678.615,88.123c.484,.539,1.276,1.046,2.311,1.046,1.31,0,1.728-.704,1.728-1.266,0-.88-.892-1.122-1.859-1.386-1.177-.309-2.486-.639-2.486-2.08,0-1.21,1.078-2.035,2.52-2.035,1.122,0,1.991,.374,2.607,1.023l-.551,.671c-.55-.605-1.319-.88-2.123-.88-.88,0-1.507,.473-1.507,1.166,0,.737,.847,.957,1.782,1.21,1.199,.319,2.563,.693,2.563,2.233,0,1.067-.727,2.156-2.707,2.156-1.275,0-2.211-.484-2.816-1.166l.539-.693Z"/><path d="M684.852,89.85v-7.338h4.808v.813h-3.895v2.366h3.817v.813h-3.817v3.345h-.913Z"/></g></g><g><rect x="735.961" y="70.907" width="30.765" height="30.765" rx=".962" ry=".962" transform="translate(665.053 837.633) rotate(-90)" fill="none" stroke="#000" stroke-linecap="round" stroke-linejoin="round"/><g><path d="M740.161,82.512h.914v4.467c0,1.342,.726,2.189,2.078,2.189s2.08-.848,2.08-2.189v-4.467h.912v4.478c0,1.826-1,2.992-2.992,2.992s-2.992-1.177-2.992-2.981v-4.488Z"/><path d="M747.751,89.85v-7.338h2.51c2.277,0,3.762,1.595,3.762,3.675s-1.484,3.663-3.762,3.663h-2.51Zm.914-.814h1.596c1.781,0,2.816-1.275,2.816-2.849,0-1.585-1.002-2.861-2.816-2.861h-1.596v5.71Z"/><path d="M761.613,89.85v-6.105l-2.497,6.105h-.374l-2.486-6.105v6.105h-.914v-7.338h1.311l2.277,5.589,2.287-5.589h1.31v7.338h-.913Z"/></g></g><g><rect x="885.379" y="70.907" width="30.765" height="30.765" rx=".962" ry=".962" transform="translate(814.471 987.051) rotate(-90)" fill="none" stroke="#000" stroke-linecap="round" stroke-linejoin="round"/><g><path d="M896.659,89.709l-4.279-5.919v5.919h-.913v-7.338h.936l4.225,5.798v-5.798h.913v7.338h-.881Z"/><path d="M903.392,89.709l-1.87-2.915h-1.463v2.915h-.914v-7.338h2.949c1.342,0,2.299,.858,2.299,2.211,0,1.32-.902,2.047-1.903,2.135l1.98,2.992h-1.078Zm-1.408-6.524h-1.925v2.806h1.925c.869,0,1.463-.583,1.463-1.408s-.594-1.397-1.463-1.397Z"/><path d="M905.723,89.709v-7.338h4.808v.813h-3.895v2.366h3.817v.813h-3.817v3.345h-.913Z"/></g></g><g><rect x="810.67" y="70.907" width="30.765" height="30.765" rx=".962" ry=".962" transform="translate(739.762 912.342) rotate(-90)" fill="none" stroke="#000" stroke-linecap="round" stroke-linejoin="round"/><g><path d="M822.165,89.709l-4.279-5.919v5.919h-.914v-7.338h.936l4.225,5.798v-5.798h.913v7.338h-.88Z"/><path d="M824.65,89.709v-7.338h4.809v.813h-3.895v2.366h3.817v.813h-3.817v2.53h3.895v.814h-4.809Z"/><path d="M830.798,89.709v-7.338h4.809v.813h-3.895v2.366h3.817v.813h-3.817v3.345h-.914Z"/></g></g><g><rect x="586.542" y="70.907" width="30.765" height="30.765" rx=".962" ry=".962" transform="translate(515.635 688.215) rotate(-90)" fill="none" stroke="#000" stroke-linecap="round" stroke-linejoin="round"/><g><path d="M594.776,89.709l-4.279-5.919v5.919h-.913v-7.338h.936l4.225,5.798v-5.798h.912v7.338h-.88Z"/><path d="M597.361,87.981c.484,.539,1.275,1.046,2.311,1.046,1.309,0,1.727-.704,1.727-1.266,0-.88-.891-1.122-1.859-1.386-1.177-.309-2.486-.639-2.486-2.08,0-1.21,1.078-2.035,2.52-2.035,1.122,0,1.991,.374,2.607,1.023l-.551,.671c-.549-.605-1.319-.88-2.123-.88-.88,0-1.507,.473-1.507,1.166,0,.737,.847,.957,1.782,1.21,1.199,.319,2.563,.693,2.563,2.233,0,1.067-.726,2.156-2.706,2.156-1.276,0-2.212-.484-2.816-1.166l.539-.693Z"/><path d="M603.696,87.981c.484,.539,1.276,1.046,2.311,1.046,1.31,0,1.728-.704,1.728-1.266,0-.88-.892-1.122-1.859-1.386-1.178-.309-2.486-.639-2.486-2.08,0-1.21,1.078-2.035,2.52-2.035,1.121,0,1.99,.374,2.607,1.023l-.551,.671c-.55-.605-1.32-.88-2.123-.88-.881,0-1.508,.473-1.508,1.166,0,.737,.848,.957,1.783,1.21,1.199,.319,2.562,.693,2.562,2.233,0,1.067-.726,2.156-2.706,2.156-1.276,0-2.212-.484-2.816-1.166l.539-.693Z"/><path d="M609.933,89.709v-7.338h4.808v.813h-3.895v2.366h3.817v.813h-3.817v3.345h-.913Z"/></g></g></g><g><g><path d="M772.694,302.276l-2.543-3.582v3.582h-1.135v-5.333h1.167l2.471,3.454v-3.454h1.136v5.333h-1.096Z"/><path d="M775.597,300.964c.288,.264,.592,.408,1.063,.408,.855,0,1.335-.728,1.335-1.535v-.112c-.256,.359-.791,.688-1.375,.688-.959,0-1.823-.592-1.823-1.727,0-1.04,.832-1.831,2.047-1.831,1.615,0,2.295,1.247,2.295,2.758,0,1.607-.903,2.751-2.479,2.751-.647,0-1.191-.216-1.567-.552l.504-.848Zm1.296-3.126c-.608,0-.936,.424-.936,.799,0,.568,.472,.816,.983,.816,.399,0,.791-.185,1.039-.496-.04-.512-.328-1.119-1.087-1.119Z"/></g><g><path d="M643.873,283.097h1.151v3.166c0,.744,.408,1.256,1.239,1.256,.815,0,1.224-.512,1.224-1.256v-3.166h1.15v3.198c0,1.327-.759,2.231-2.374,2.231-1.632,0-2.391-.912-2.391-2.224v-3.206Z"/><path d="M652.452,288.43v-.487c-.264,.296-.729,.584-1.359,.584-.848,0-1.248-.464-1.248-1.216v-2.742h1.016v2.343c0,.535,.279,.711,.712,.711,.392,0,.704-.216,.88-.439v-2.614h1.016v3.861h-1.016Z"/></g><g><path d="M729.247,288.43l-2.542-3.582v3.582h-1.136v-5.333h1.168l2.47,3.454v-3.454h1.136v5.333h-1.096Z"/><path d="M731.797,286.927c.368,.384,.952,.607,1.472,.607,.647,0,1.008-.279,1.008-.688,0-.432-.328-.632-1.072-.632-.224,0-.583,0-.663,.009v-.992c.096,.008,.456,.008,.663,.008,.592,0,.983-.191,.983-.591,0-.424-.432-.64-.991-.64-.52,0-.983,.199-1.359,.56l-.56-.704c.432-.487,1.104-.848,2.039-.848,1.247,0,2.015,.56,2.015,1.447,0,.672-.575,1.111-1.167,1.216,.544,.056,1.247,.479,1.247,1.279,0,.919-.823,1.567-2.103,1.567-.983,0-1.711-.376-2.103-.856l.591-.743Z"/></g><g><path d="M684.759,307.655c.312,.344,.72,.479,1.207,.479s1.063-.216,1.063-.976v-.392c-.304,.384-.72,.607-1.191,.607-.967,0-1.703-.68-1.703-1.967,0-1.264,.728-1.967,1.703-1.967,.464,0,.88,.2,1.191,.592v-.496h1.023v3.599c0,1.471-1.135,1.83-2.087,1.83-.663,0-1.184-.151-1.663-.575l.456-.735Zm2.271-2.871c-.168-.256-.535-.439-.871-.439-.576,0-.976,.399-.976,1.063s.399,1.063,.976,1.063c.336,0,.703-.192,.871-.439v-1.248Z"/><path d="M692.972,307.399l-2.543-3.582v3.582h-1.135v-5.333h1.167l2.471,3.454v-3.454h1.136v5.333h-1.096Z"/><path d="M695.378,307.399v-5.333h2.807c1.016,0,1.535,.647,1.535,1.359,0,.671-.416,1.119-.92,1.223,.568,.088,1.023,.64,1.023,1.312,0,.8-.535,1.439-1.551,1.439h-2.895Zm1.136-3.19h1.423c.384,0,.624-.248,.624-.592,0-.328-.24-.584-.624-.584h-1.423v1.176Zm0,2.223h1.463c.432,0,.688-.248,.688-.632,0-.336-.239-.623-.688-.623h-1.463v1.255Z"/></g><g id="b" transform="translate(0.25 0.25)"><g id="c" transform="translate(0.5 0.5)"><path id="d" d="M898.178,295.02h-35.651c-4.933,0-8.932-4.019-8.932-8.977s3.999-8.977,8.932-8.977h0c-.009-7.406,5.958-13.418,13.327-13.427,1.885-.002,3.75,.397,5.47,1.172,3.044-8.106,12.05-12.198,20.115-9.138,6.076,2.305,10.098,8.15,10.098,14.678,.021,1.373-.162,2.741-.543,4.06,5.158,3.395,6.602,10.35,3.224,15.535-2.067,3.172-5.588,5.081-9.36,5.074h-6.68v.002Z" fill="none" stroke="#000" stroke-linecap="round" stroke-linejoin="round"/></g></g><g><path d="M878.072,282.336v-7.338h2.509c2.277,0,3.762,1.595,3.762,3.675s-1.484,3.663-3.762,3.663h-2.509Zm.913-.814h1.596c1.782,0,2.816-1.275,2.816-2.849,0-1.585-1.002-2.861-2.816-2.861h-1.596v5.71Z"/><path d="M890.69,282.336l-4.279-5.919v5.919h-.914v-7.338h.936l4.225,5.798v-5.798h.913v7.338h-.88Z"/></g><g><rect x="587.25" y="263.456" width="30.765" height="30.765" rx=".962" ry=".962" transform="translate(323.794 881.472) rotate(-90)" fill="none" stroke="#000" stroke-linecap="round" stroke-linejoin="round"/><g><path d="M596.566,274.918h.914v4.467c0,1.342,.727,2.189,2.079,2.189s2.079-.848,2.079-2.189v-4.467h.913v4.479c0,1.826-1.001,2.992-2.992,2.992s-2.993-1.178-2.993-2.982v-4.488Z"/><path d="M604.157,282.256v-7.338h4.808v.814h-3.895v2.365h3.818v.814h-3.818v2.529h3.895v.814h-4.808Z"/></g></g><g><path d="M766.697,288.246h-3.946c-.529,0-.962-.433-.962-.962v-28.841c0-.529,.433-.962,.962-.962h28.841c.529,0,.962,.433,.962,.962v3.79" fill="none" stroke="#000" stroke-linecap="round" stroke-linejoin="round"/><rect x="766.739" y="262.431" width="30.765" height="30.765" rx=".962" ry=".962" transform="translate(504.308 1059.935) rotate(-90)" fill="none" stroke="#000" stroke-linecap="round" stroke-linejoin="round"/><g><path d="M773.513,273.918h.914v4.467c0,1.342,.727,2.189,2.079,2.189s2.079-.848,2.079-2.189v-4.467h.913v4.478c0,1.826-1.001,2.992-2.992,2.992s-2.993-1.177-2.993-2.981v-4.488Z"/><path d="M781.104,281.256v-7.338h2.948c1.475,0,2.3,1.012,2.3,2.211s-.847,2.212-2.3,2.212h-2.035v2.915h-.913Zm2.839-6.524h-1.926v2.795h1.926c.869,0,1.463-.572,1.463-1.397s-.594-1.397-1.463-1.397Z"/><path d="M787.451,281.256v-7.338h4.809v.813h-3.895v2.366h3.816v.813h-3.816v3.345h-.914Z"/></g></g><g><path d="M685.396,272.406l-1.338-1.842c-1.073-1.477-1.046-3.235,.07-4.695l1.268-1.658" fill="none" stroke="#000" stroke-linecap="round" stroke-linejoin="round"/><path d="M682.695,274.571l-2.91-4.006c-1.073-1.477-1.046-3.235,.07-4.695l2.839-3.712" fill="none" stroke="#000" stroke-linecap="round" stroke-linejoin="round"/><path d="M679.42,276.196l-4.193-5.772c-1.073-1.477-1.046-3.235,.07-4.695l4.122-5.39" fill="none" stroke="#000" stroke-linecap="round" stroke-linejoin="round"/><path d="M696.987,264.129l1.338,1.842c1.073,1.477,1.046,3.235-.07,4.695l-1.268,1.658" fill="none" stroke="#000" stroke-linecap="round" stroke-linejoin="round"/><path d="M699.688,261.963l2.91,4.006c1.073,1.477,1.046,3.235-.07,4.695l-2.839,3.712" fill="none" stroke="#000" stroke-linecap="round" stroke-linejoin="round"/><path d="M702.963,260.339l4.193,5.772c1.073,1.477,1.046,3.235-.07,4.695l-4.122,5.39" fill="none" stroke="#000" stroke-linecap="round" stroke-linejoin="round"/><path d="M700.387,297.339l-7.221-25.728c1.134-.679,1.896-1.92,1.896-3.344,0-2.15-1.733-3.893-3.87-3.893s-3.87,1.743-3.87,3.893c0,1.423,.762,2.665,1.896,3.344l-7.221,25.728h15.765" fill="none" stroke="#000" stroke-linecap="round" stroke-linejoin="round"/><line x1="685.937" y1="292.094" x2="696.446" y2="292.094" fill="none" stroke="#000" stroke-linecap="round" stroke-linejoin="round"/><line x1="687.25" y1="286.767" x2="695.133" y2="286.767" fill="none" stroke="#000" stroke-linecap="round" stroke-linejoin="round"/><line x1="688.564" y1="281.481" x2="693.819" y2="281.481" fill="none" stroke="#000" stroke-linecap="round" stroke-linejoin="round"/></g><line x1="618.703" y1="278.839" x2="687.02" y2="278.839" fill="none" stroke="#000" stroke-linecap="round" stroke-linejoin="round"/><line x1="695.586" y1="278.839" x2="761.166" y2="278.839" fill="none" stroke="#000" stroke-linecap="round" stroke-linejoin="round"/><line x1="797.969" y1="278.839" x2="857.208" y2="278.839" fill="none" stroke="#000" stroke-linecap="round" stroke-linejoin="round"/></g><g><path d="M609.89,114.761l-2.542-3.582v3.582h-1.136v-5.333h1.168l2.471,3.454v-3.454h1.135v5.333h-1.096Z"/><path d="M614.837,114.761v-2.334c0-.536-.28-.72-.713-.72-.398,0-.711,.224-.879,.456v2.599h-1.016v-3.862h1.016v.504c.248-.296,.72-.6,1.352-.6,.848,0,1.256,.48,1.256,1.231v2.727h-1.016Z"/><path d="M617.152,113.546c.279,.264,.855,.528,1.335,.528,.44,0,.647-.152,.647-.392,0-.271-.336-.368-.775-.456-.664-.128-1.52-.288-1.52-1.208,0-.647,.568-1.215,1.584-1.215,.655,0,1.175,.224,1.551,.528l-.4,.696c-.231-.248-.671-.448-1.143-.448-.368,0-.607,.136-.607,.36,0,.24,.303,.328,.734,.416,.664,.128,1.552,.304,1.552,1.263,0,.712-.6,1.24-1.671,1.24-.672,0-1.319-.224-1.727-.6l.439-.711Z"/><path d="M621.154,113.546c.279,.264,.855,.528,1.334,.528,.44,0,.648-.152,.648-.392,0-.271-.336-.368-.775-.456-.664-.128-1.52-.288-1.52-1.208,0-.647,.568-1.215,1.583-1.215,.655,0,1.175,.224,1.552,.528l-.4,.696c-.232-.248-.672-.448-1.143-.448-.369,0-.608,.136-.608,.36,0,.24,.304,.328,.735,.416,.664,.128,1.551,.304,1.551,1.263,0,.712-.6,1.24-1.67,1.24-.672,0-1.32-.224-1.728-.6l.44-.711Z"/><path d="M626.329,111.787v2.974h-1.023v-2.974h-.641v-.888h.641v-.208c0-.839,.543-1.343,1.303-1.343,.288,0,.552,.064,.736,.16l-.209,.719c-.088-.056-.207-.08-.327-.08-.288,0-.479,.192-.479,.56v.192h.783v.888h-.783Z"/></g><g><path d="M610.301,167.544l-2.543-3.582v3.582h-1.135v-5.333h1.167l2.471,3.454v-3.454h1.136v5.333h-1.096Z"/><path d="M613.656,169.016h-1.015v-5.333h1.015v.488c.296-.376,.72-.584,1.191-.584,.992,0,1.711,.736,1.711,2.023s-.719,2.031-1.711,2.031c-.455,0-.879-.191-1.191-.591v1.967Zm.872-4.525c-.328,0-.704,.192-.872,.439v1.368c.168,.24,.544,.439,.872,.439,.583,0,.976-.456,.976-1.127,0-.664-.393-1.119-.976-1.119Z"/><path d="M619.329,163.586c.791,0,1.271,.344,1.527,.704l-.664,.616c-.184-.264-.464-.416-.815-.416-.616,0-1.048,.448-1.048,1.119s.432,1.127,1.048,1.127c.352,0,.632-.16,.815-.416l.664,.616c-.256,.359-.736,.703-1.527,.703-1.191,0-2.047-.839-2.047-2.031,0-1.183,.855-2.023,2.047-2.023Z"/><path d="M623.09,164.57v2.975h-1.023v-2.975h-.64v-.887h.64v-.208c0-.839,.544-1.343,1.304-1.343,.288,0,.552,.064,.735,.16l-.208,.719c-.088-.056-.208-.08-.327-.08-.288,0-.48,.192-.48,.56v.192h.784v.887h-.784Z"/></g><g><path d="M684.318,167.544l-2.543-3.582v3.582h-1.135v-5.333h1.166l2.471,3.454v-3.454h1.137v5.333h-1.096Z"/><path d="M688.996,167.544v-.4c-.264,.312-.72,.496-1.224,.496-.615,0-1.343-.416-1.343-1.279,0-.903,.728-1.231,1.343-1.231,.512,0,.968,.16,1.224,.472v-.536c0-.392-.335-.648-.847-.648-.416,0-.801,.152-1.128,.456l-.384-.68c.472-.416,1.079-.608,1.688-.608,.879,0,1.687,.352,1.687,1.463v2.495h-1.016Zm0-1.407c-.167-.224-.487-.336-.815-.336-.4,0-.728,.216-.728,.584,0,.359,.327,.567,.728,.567,.328,0,.648-.112,.815-.336v-.479Z"/><path d="M695.969,167.544v-2.438c0-.36-.159-.616-.575-.616-.36,0-.656,.24-.8,.448v2.606h-1.023v-2.438c0-.36-.16-.616-.575-.616-.353,0-.648,.24-.801,.456v2.599h-1.015v-3.862h1.015v.503c.16-.231,.672-.6,1.264-.6,.568,0,.928,.264,1.072,.704,.223-.352,.734-.704,1.326-.704,.712,0,1.136,.376,1.136,1.167v2.791h-1.023Z"/><path d="M699.431,164.57v2.975h-1.023v-2.975h-.64v-.887h.64v-.208c0-.839,.544-1.343,1.303-1.343,.289,0,.553,.064,.736,.16l-.208,.719c-.088-.056-.208-.08-.327-.08-.289,0-.48,.192-.48,.56v.192h.783v.887h-.783Z"/></g><g><path d="M758.835,167.544l-2.543-3.582v3.582h-1.135v-5.333h1.167l2.47,3.454v-3.454h1.137v5.333h-1.096Z"/><path d="M761.315,166.329c.28,.264,.855,.528,1.335,.528,.439,0,.647-.152,.647-.392,0-.271-.335-.368-.775-.456-.663-.128-1.519-.288-1.519-1.208,0-.647,.567-1.215,1.582-1.215,.656,0,1.176,.224,1.552,.528l-.399,.696c-.232-.248-.672-.448-1.144-.448-.368,0-.608,.136-.608,.36,0,.24,.305,.328,.736,.416,.664,.128,1.551,.304,1.551,1.263,0,.712-.6,1.239-1.671,1.239-.672,0-1.319-.224-1.728-.6l.44-.711Z"/><path d="M769.992,167.544v-2.438c0-.36-.16-.616-.576-.616-.359,0-.655,.24-.799,.448v2.606h-1.023v-2.438c0-.36-.16-.616-.576-.616-.352,0-.648,.24-.8,.456v2.599h-1.015v-3.862h1.015v.503c.16-.231,.672-.6,1.264-.6,.567,0,.927,.264,1.071,.704,.224-.352,.735-.704,1.327-.704,.712,0,1.136,.376,1.136,1.167v2.791h-1.023Z"/><path d="M773.452,164.57v2.975h-1.023v-2.975h-.639v-.887h.639v-.208c0-.839,.545-1.343,1.304-1.343,.288,0,.552,.064,.735,.16l-.207,.719c-.088-.056-.209-.08-.328-.08-.288,0-.48,.192-.48,.56v.192h.784v.887h-.784Z"/></g><g><path d="M770.792,232.508l-2.542-3.582v3.582h-1.136v-5.333h1.167l2.471,3.454v-3.454h1.136v5.333h-1.096Z"/><path d="M775.342,232.508v-1.104h-2.551v-.896l2.119-3.334h1.567v3.23h.688v.999h-.688v1.104h-1.136Zm0-4.325l-1.439,2.223h1.439v-2.223Z"/></g><g><path d="M689.008,232.508l-2.542-3.582v3.582h-1.136v-5.333h1.167l2.471,3.454v-3.454h1.136v5.333h-1.096Z"/><path d="M691.158,232.508v-.896c2.182-1.606,2.822-2.158,2.822-2.814,0-.464-.424-.695-.872-.695-.6,0-1.063,.24-1.423,.615l-.648-.751c.52-.6,1.312-.872,2.055-.872,1.137,0,2.039,.64,2.039,1.703,0,.912-.751,1.703-2.182,2.711h2.223v.999h-4.014Z"/></g><g><path d="M635.475,232.508l-2.542-3.582v3.582h-1.136v-5.333h1.168l2.47,3.454v-3.454h1.136v5.333h-1.096Z"/><path d="M638.882,232.508v-3.87l-.879,.904-.648-.68,1.68-1.688h.991v5.333h-1.144Z"/></g><g><path d="M834.437,167.544l-2.542-3.582v3.582h-1.136v-5.333h1.168l2.471,3.454v-3.454h1.135v5.333h-1.096Z"/><path d="M839.117,167.544v-.4c-.264,.312-.719,.496-1.223,.496-.616,0-1.344-.416-1.344-1.279,0-.903,.728-1.231,1.344-1.231,.512,0,.967,.16,1.223,.472v-.536c0-.392-.336-.648-.848-.648-.416,0-.799,.152-1.127,.456l-.384-.68c.472-.416,1.079-.608,1.687-.608,.88,0,1.688,.352,1.688,1.463v2.495h-1.016Zm0-1.407c-.168-.224-.487-.336-.815-.336-.399,0-.728,.216-.728,.584,0,.359,.328,.567,.728,.567,.328,0,.647-.112,.815-.336v-.479Z"/><path d="M842.534,164.57v2.975h-1.023v-2.975h-.64v-.887h.64v-.208c0-.839,.544-1.343,1.304-1.343,.287,0,.551,.064,.735,.16l-.208,.719c-.088-.056-.208-.08-.328-.08-.287,0-.479,.192-.479,.56v.192h.784v.887h-.784Z"/></g><g><path d="M909.75,167.544l-2.542-3.582v3.582h-1.136v-5.333h1.167l2.471,3.454v-3.454h1.136v5.333h-1.096Z"/><path d="M912.09,167.544v-5.333h1.016v1.967c.304-.392,.735-.592,1.191-.592,.983,0,1.711,.768,1.711,2.031,0,1.287-.735,2.022-1.711,2.022-.464,0-.888-.208-1.191-.583v.488h-1.016Zm1.016-1.239c.168,.248,.544,.432,.871,.432,.592,0,.983-.448,.983-1.119s-.392-1.127-.983-1.127c-.327,0-.703,.192-.871,.448v1.367Z"/><path d="M917.081,166.329c.28,.264,.855,.528,1.335,.528,.44,0,.647-.152,.647-.392,0-.271-.335-.368-.775-.456-.663-.128-1.519-.288-1.519-1.208,0-.647,.567-1.215,1.583-1.215,.655,0,1.175,.224,1.551,.528l-.399,.696c-.232-.248-.672-.448-1.144-.448-.368,0-.607,.136-.607,.36,0,.24,.304,.328,.735,.416,.664,.128,1.551,.304,1.551,1.263,0,.712-.6,1.239-1.671,1.239-.672,0-1.319-.224-1.727-.6l.439-.711Z"/><path d="M922.257,164.57v2.975h-1.023v-2.975h-.64v-.887h.64v-.208c0-.839,.544-1.343,1.304-1.343,.288,0,.552,.064,.735,.16l-.208,.719c-.088-.056-.208-.08-.327-.08-.288,0-.48,.192-.48,.56v.192h.784v.887h-.784Z"/></g><line x1="970.898" y1="154.282" x2="970.898" y2="174.94" fill="none" stroke="#1db14b" stroke-dasharray="0 0 3 3" stroke-linecap="round" stroke-linejoin="round"/><rect x="954.322" y="175.588" width="30.765" height="30.765" rx=".962" ry=".962" transform="translate(778.734 1160.675) rotate(-90)" fill="none" stroke="#000" stroke-linecap="round" stroke-linejoin="round"/><g><path d="M959.717,190.727c0-2.256,1.661-3.797,3.741-3.797,1.33,0,2.232,.627,2.816,1.453l-.771,.428c-.419-.615-1.177-1.066-2.046-1.066-1.574,0-2.795,1.232-2.795,2.982,0,1.738,1.221,2.98,2.795,2.98,.869,0,1.627-.439,2.046-1.066l.78,.428c-.615,.836-1.496,1.453-2.826,1.453-2.08,0-3.741-1.541-3.741-3.795Z"/><path d="M972.544,194.389v-3.365h-4.291v3.365h-.913v-7.338h.913v3.158h4.291v-3.158h.913v7.338h-.913Z"/><path d="M975.062,194.389v-7.338h4.809v.814h-3.895v2.365h3.816v.814h-3.816v3.344h-.914Z"/></g><g><path d="M978.675,167.544l-2.542-3.582v3.582h-1.136v-5.333h1.168l2.471,3.454v-3.454h1.135v5.333h-1.096Z"/><path d="M982.835,163.586c.791,0,1.271,.344,1.527,.704l-.664,.616c-.184-.264-.463-.416-.815-.416-.616,0-1.048,.448-1.048,1.119s.432,1.127,1.048,1.127c.353,0,.632-.16,.815-.416l.664,.616c-.256,.359-.736,.703-1.527,.703-1.191,0-2.047-.839-2.047-2.031,0-1.183,.855-2.023,2.047-2.023Z"/><path d="M987.786,167.544v-2.351c0-.536-.28-.704-.72-.704-.392,0-.704,.224-.88,.456v2.599h-1.016v-5.333h1.016v1.975c.248-.295,.728-.6,1.359-.6,.848,0,1.256,.464,1.256,1.215v2.743h-1.016Z"/><path d="M991.218,164.57v2.975h-1.023v-2.975h-.639v-.887h.639v-.208c0-.839,.545-1.343,1.304-1.343,.288,0,.552,.064,.735,.16l-.207,.719c-.088-.056-.209-.08-.328-.08-.288,0-.48,.192-.48,.56v.192h.784v.887h-.784Z"/></g><g><path d="M684.183,114.761l-2.543-3.582v3.582h-1.135v-5.333h1.167l2.47,3.454v-3.454h1.137v5.333h-1.096Z"/><path d="M688.862,114.761v-.4c-.264,.312-.72,.496-1.224,.496-.615,0-1.343-.416-1.343-1.279,0-.904,.728-1.231,1.343-1.231,.512,0,.968,.16,1.224,.472v-.536c0-.392-.335-.648-.847-.648-.416,0-.801,.152-1.128,.456l-.384-.68c.472-.416,1.079-.608,1.688-.608,.879,0,1.687,.352,1.687,1.463v2.495h-1.016Zm0-1.407c-.168-.224-.487-.336-.815-.336-.4,0-.728,.216-.728,.584,0,.36,.327,.567,.728,.567,.328,0,.647-.112,.815-.335v-.48Z"/><path d="M693.634,114.761v-.488c-.265,.296-.729,.584-1.359,.584-.848,0-1.248-.464-1.248-1.216v-2.742h1.016v2.343c0,.536,.279,.711,.712,.711,.392,0,.704-.216,.88-.44v-2.614h1.015v3.862h-1.015Z"/><path d="M695.962,113.546c.28,.264,.855,.528,1.336,.528,.439,0,.647-.152,.647-.392,0-.271-.336-.368-.776-.456-.663-.128-1.519-.288-1.519-1.208,0-.647,.567-1.215,1.583-1.215,.656,0,1.176,.224,1.551,.528l-.399,.696c-.231-.248-.671-.448-1.144-.448-.367,0-.607,.136-.607,.36,0,.24,.304,.328,.735,.416,.664,.128,1.552,.304,1.552,1.263,0,.712-.6,1.24-1.672,1.24-.672,0-1.318-.224-1.727-.6l.439-.711Z"/><path d="M701.138,111.787v2.974h-1.023v-2.974h-.639v-.888h.639v-.208c0-.839,.545-1.343,1.304-1.343,.288,0,.552,.064,.735,.16l-.207,.719c-.088-.056-.209-.08-.328-.08-.288,0-.48,.192-.48,.56v.192h.784v.888h-.784Z"/></g><g><path d="M758.118,114.761l-2.542-3.582v3.582h-1.136v-5.333h1.167l2.471,3.454v-3.454h1.136v5.333h-1.096Z"/><path d="M763.061,114.761v-.488c-.265,.296-.728,.584-1.359,.584-.848,0-1.247-.464-1.247-1.216v-2.742h1.016v2.343c0,.536,.279,.711,.711,.711,.393,0,.704-.216,.88-.44v-2.614h1.015v3.862h-1.015Z"/><path d="M767.935,114.761v-.488c-.303,.376-.727,.584-1.191,.584-.975,0-1.711-.736-1.711-2.023,0-1.264,.729-2.031,1.711-2.031,.457,0,.889,.2,1.191,.592v-1.967h1.023v5.333h-1.023Zm0-2.615c-.176-.256-.535-.439-.879-.439-.576,0-.976,.456-.976,1.127,0,.664,.399,1.119,.976,1.119,.344,0,.703-.184,.879-.44v-1.367Z"/><path d="M774.922,114.761v-2.438c0-.36-.159-.616-.575-.616-.36,0-.656,.24-.8,.448v2.606h-1.023v-2.438c0-.36-.16-.616-.575-.616-.353,0-.648,.24-.801,.456v2.599h-1.015v-3.862h1.015v.504c.16-.232,.672-.6,1.264-.6,.568,0,.928,.264,1.072,.704,.223-.352,.734-.704,1.326-.704,.712,0,1.136,.376,1.136,1.167v2.791h-1.023Z"/></g><g><path d="M835.58,114.761l-2.542-3.582v3.582h-1.136v-5.333h1.167l2.471,3.454v-3.454h1.136v5.333h-1.096Z"/><path d="M840.527,114.761v-2.334c0-.536-.279-.72-.712-.72-.399,0-.711,.224-.879,.456v2.599h-1.016v-3.862h1.016v.504c.248-.296,.72-.6,1.352-.6,.847,0,1.255,.48,1.255,1.231v2.727h-1.016Z"/><path d="M844.475,110.803c1.151,0,1.935,.864,1.935,2.127v.224h-2.87c.063,.487,.455,.896,1.111,.896,.359,0,.783-.144,1.031-.384l.447,.655c-.392,.36-.991,.536-1.591,.536-1.175,0-2.062-.792-2.062-2.031,0-1.119,.823-2.023,1.999-2.023Zm-.952,1.663h1.903c-.024-.368-.28-.855-.951-.855-.632,0-.904,.472-.952,.855Z"/><path d="M848.585,111.787v2.974h-1.023v-2.974h-.64v-.888h.64v-.208c0-.839,.544-1.343,1.303-1.343,.288,0,.552,.064,.736,.16l-.208,.719c-.088-.056-.208-.08-.328-.08-.288,0-.479,.192-.479,.56v.192h.783v.888h-.783Z"/></g><g><path d="M911.34,114.761l-2.543-3.582v3.582h-1.135v-5.333h1.167l2.471,3.454v-3.454h1.136v5.333h-1.096Z"/><path d="M916.286,114.761v-2.334c0-.536-.28-.72-.712-.72-.399,0-.712,.224-.88,.456v2.599h-1.015v-3.862h1.015v.504c.248-.296,.72-.6,1.352-.6,.848,0,1.255,.48,1.255,1.231v2.727h-1.015Z"/><path d="M918.473,114.761v-3.862h1.015v.528c.272-.344,.752-.616,1.231-.616v.991c-.071-.016-.168-.024-.279-.024-.336,0-.784,.184-.952,.432v2.551h-1.015Z"/><path d="M922.932,111.787v2.974h-1.023v-2.974h-.64v-.888h.64v-.208c0-.839,.544-1.343,1.303-1.343,.288,0,.552,.064,.736,.16l-.208,.719c-.088-.056-.208-.08-.328-.08-.288,0-.479,.192-.479,.56v.192h.783v.888h-.783Z"/></g><g><path d="M758.435,332.526v-2.239h-2.518v2.239h-1.136v-5.333h1.136v2.095h2.518v-2.095h1.145v5.333h-1.145Z"/><path d="M761.978,332.526v-4.334h-1.56v-.999h4.254v.999h-1.552v4.334h-1.143Z"/><path d="M766.896,332.526v-4.334h-1.559v-.999h4.254v.999h-1.552v4.334h-1.144Z"/><path d="M770.43,332.526v-5.333h2.495c1.158,0,1.791,.783,1.791,1.719,0,.928-.641,1.703-1.791,1.703h-1.359v1.911h-1.136Zm2.343-4.357h-1.207v1.471h1.207c.447,0,.783-.288,.783-.735,0-.44-.336-.735-.783-.735Z"/><path d="M774.768,332.685l1.896-5.652h.734l-1.895,5.652h-.735Z"/><path d="M777.975,332.526v-.896c2.183-1.607,2.822-2.159,2.822-2.814,0-.464-.424-.696-.872-.696-.6,0-1.062,.24-1.423,.616l-.647-.752c.52-.6,1.312-.871,2.055-.871,1.136,0,2.039,.64,2.039,1.703,0,.911-.752,1.703-2.183,2.71h2.223v1h-4.014Z"/><path d="M785.39,330.911c.376,.392,.96,.72,1.695,.72,.624,0,.928-.296,.928-.6,0-.4-.464-.536-1.08-.68-.871-.2-1.99-.44-1.99-1.632,0-.887,.768-1.606,2.023-1.606,.847,0,1.551,.256,2.078,.743l-.632,.832c-.432-.4-1.007-.584-1.526-.584-.512,0-.784,.224-.784,.544,0,.359,.448,.472,1.063,.615,.879,.2,1.999,.464,1.999,1.647,0,.976-.696,1.711-2.135,1.711-1.023,0-1.759-.344-2.263-.848l.623-.863Z"/><path d="M790.001,327.489c0-.336,.28-.608,.607-.608,.336,0,.608,.272,.608,.608s-.272,.607-.608,.607c-.327,0-.607-.272-.607-.607Zm.104,5.037v-3.862h1.015v3.862h-1.015Z"/><path d="M792.672,332.782c.312,.344,.72,.479,1.208,.479s1.062-.216,1.062-.976v-.392c-.304,.384-.719,.607-1.191,.607-.967,0-1.703-.68-1.703-1.967,0-1.264,.729-1.967,1.703-1.967,.465,0,.88,.2,1.191,.592v-.496h1.023v3.599c0,1.471-1.135,1.83-2.086,1.83-.664,0-1.184-.151-1.664-.575l.456-.735Zm2.271-2.871c-.168-.256-.535-.439-.871-.439-.576,0-.976,.399-.976,1.063s.399,1.063,.976,1.063c.336,0,.703-.192,.871-.439v-1.248Z"/><path d="M799.75,332.526v-2.335c0-.536-.28-.72-.712-.72-.399,0-.711,.224-.879,.456v2.599h-1.016v-3.862h1.016v.504c.248-.296,.719-.6,1.352-.6,.847,0,1.255,.479,1.255,1.231v2.727h-1.016Z"/><path d="M804.261,332.526v-.4c-.264,.312-.719,.496-1.223,.496-.615,0-1.344-.416-1.344-1.279,0-.903,.729-1.231,1.344-1.231,.512,0,.967,.16,1.223,.472v-.535c0-.393-.335-.648-.847-.648-.416,0-.8,.152-1.128,.456l-.383-.68c.471-.416,1.078-.607,1.687-.607,.88,0,1.687,.352,1.687,1.463v2.495h-1.016Zm0-1.407c-.167-.225-.487-.336-.814-.336-.4,0-.729,.216-.729,.584,0,.359,.328,.567,.729,.567,.327,0,.647-.112,.814-.336v-.479Z"/><path d="M806.445,332.526v-5.333h1.016v5.333h-1.016Z"/><path d="M808.524,327.489c0-.336,.28-.608,.607-.608,.336,0,.608,.272,.608,.608s-.272,.607-.608,.607c-.327,0-.607-.272-.607-.607Zm.104,5.037v-3.862h1.015v3.862h-1.015Z"/><path d="M813.416,332.526v-2.335c0-.536-.28-.72-.712-.72-.399,0-.711,.224-.879,.456v2.599h-1.016v-3.862h1.016v.504c.248-.296,.719-.6,1.352-.6,.847,0,1.255,.479,1.255,1.231v2.727h-1.016Z"/><path d="M816,332.782c.312,.344,.72,.479,1.208,.479s1.062-.216,1.062-.976v-.392c-.304,.384-.719,.607-1.191,.607-.967,0-1.703-.68-1.703-1.967,0-1.264,.729-1.967,1.703-1.967,.465,0,.88,.2,1.191,.592v-.496h1.023v3.599c0,1.471-1.135,1.83-2.086,1.83-.664,0-1.184-.151-1.664-.575l.456-.735Zm2.271-2.871c-.168-.256-.535-.439-.871-.439-.576,0-.976,.399-.976,1.063s.399,1.063,.976,1.063c.336,0,.703-.192,.871-.439v-1.248Z"/></g><g><path d="M782.539,141.106c.484,.539,1.276,1.046,2.311,1.046,1.309,0,1.727-.704,1.727-1.266,0-.88-.891-1.122-1.859-1.386-1.177-.309-2.486-.639-2.486-2.08,0-1.21,1.078-2.035,2.52-2.035,1.122,0,1.991,.374,2.607,1.023l-.55,.671c-.55-.605-1.32-.88-2.123-.88-.881,0-1.508,.473-1.508,1.166,0,.737,.848,.957,1.782,1.21,1.199,.319,2.563,.693,2.563,2.233,0,1.067-.726,2.156-2.706,2.156-1.276,0-2.212-.484-2.816-1.166l.539-.693Z"/><path d="M788.479,139.17c0-2.256,1.661-3.796,3.741-3.796,1.331,0,2.233,.627,2.816,1.452l-.771,.429c-.418-.616-1.177-1.066-2.046-1.066-1.573,0-2.795,1.231-2.795,2.981,0,1.738,1.222,2.981,2.795,2.981,.869,0,1.628-.44,2.046-1.067l.781,.429c-.616,.836-1.496,1.452-2.827,1.452-2.08,0-3.741-1.54-3.741-3.795Z"/><path d="M796.102,142.834v-7.338h2.948c1.475,0,2.3,1.012,2.3,2.211s-.848,2.212-2.3,2.212h-2.035v2.915h-.913Zm2.838-6.524h-1.925v2.795h1.925c.869,0,1.464-.572,1.464-1.397s-.595-1.397-1.464-1.397Z"/></g></svg>